<?xml version="1.0" encoding="UTF-8" standalone="no"?>
<!-- Created with Inkscape (http://www.inkscape.org/) -->

<svg
   xmlns:dc="http://purl.org/dc/elements/1.1/"
   xmlns:cc="http://creativecommons.org/ns#"
   xmlns:rdf="http://www.w3.org/1999/02/22-rdf-syntax-ns#"
   xmlns:svg="http://www.w3.org/2000/svg"
   xmlns="http://www.w3.org/2000/svg"
   xmlns:sodipodi="http://sodipodi.sourceforge.net/DTD/sodipodi-0.dtd"
   xmlns:inkscape="http://www.inkscape.org/namespaces/inkscape"
   id="svg4155"
   version="1.1"
   inkscape:version="0.91 r13725"
   xml:space="preserve"
   width="242.97113"
   height="92.57"
   viewBox="0 0 242.97113 92.57"
   sodipodi:docname="logo_college.svg"><metadata
     id="metadata4161"><rdf:RDF><cc:Work
         rdf:about=""><dc:format>image/svg+xml</dc:format><dc:type
           rdf:resource="http://purl.org/dc/dcmitype/StillImage" /><dc:title></dc:title></cc:Work></rdf:RDF></metadata><defs
     id="defs4159"><clipPath
       clipPathUnits="userSpaceOnUse"
       id="clipPath4171"><path
         d="M 0,612 792,612 792,0 0,0 0,612 Z"
         id="path4173"
         inkscape:connector-curvature="0" /></clipPath><clipPath
       clipPathUnits="userSpaceOnUse"
       id="clipPath4315"><path
         d="M 0,0 792,0 792,612 0,612 0,0 Z"
         id="path4317"
         inkscape:connector-curvature="0" /></clipPath><clipPath
       clipPathUnits="userSpaceOnUse"
       id="clipPath4339"><path
         d="M 0,0 792,0 792,612 0,612 0,0 Z"
         id="path4341"
         inkscape:connector-curvature="0" /></clipPath><clipPath
       clipPathUnits="userSpaceOnUse"
       id="clipPath4363"><path
         d="M 0,0 792,0 792,612 0,612 0,0 Z"
         id="path4365"
         inkscape:connector-curvature="0" /></clipPath><clipPath
       clipPathUnits="userSpaceOnUse"
       id="clipPath4449"><path
         d="M 0,0 792,0 792,612 0,612 0,0 Z"
         id="path4451"
         inkscape:connector-curvature="0" /></clipPath><clipPath
       clipPathUnits="userSpaceOnUse"
       id="clipPath4487"><path
         d="M 0,0 792,0 792,612 0,612 0,0 Z"
         id="path4489"
         inkscape:connector-curvature="0" /></clipPath><clipPath
       clipPathUnits="userSpaceOnUse"
       id="clipPath4535"><path
         d="M 0,0 792,0 792,612 0,612 0,0 Z"
         id="path4537"
         inkscape:connector-curvature="0" /></clipPath><clipPath
       clipPathUnits="userSpaceOnUse"
       id="clipPath4559"><path
         d="M 0,0 792,0 792,612 0,612 0,0 Z"
         id="path4561"
         inkscape:connector-curvature="0" /></clipPath><clipPath
       clipPathUnits="userSpaceOnUse"
       id="clipPath4583"><path
         d="M 0,0 792,0 792,612 0,612 0,0 Z"
         id="path4585"
         inkscape:connector-curvature="0" /></clipPath><clipPath
       clipPathUnits="userSpaceOnUse"
       id="clipPath4669"><path
         d="M 0,0 792,0 792,612 0,612 0,0 Z"
         id="path4671"
         inkscape:connector-curvature="0" /></clipPath><clipPath
       clipPathUnits="userSpaceOnUse"
       id="clipPath4707"><path
         d="M 0,0 792,0 792,612 0,612 0,0 Z"
         id="path4709"
         inkscape:connector-curvature="0" /></clipPath><clipPath
       clipPathUnits="userSpaceOnUse"
       id="clipPath4739"><path
         d="M 0,0 792,0 792,612 0,612 0,0 Z"
         id="path4741"
         inkscape:connector-curvature="0" /></clipPath><clipPath
       clipPathUnits="userSpaceOnUse"
       id="clipPath4821"><path
         d="M 0,0 792,0 792,612 0,612 0,0 Z"
         id="path4823"
         inkscape:connector-curvature="0" /></clipPath><clipPath
       clipPathUnits="userSpaceOnUse"
       id="clipPath4859"><path
         d="M 0,0 792,0 792,612 0,612 0,0 Z"
         id="path4861"
         inkscape:connector-curvature="0" /></clipPath></defs><sodipodi:namedview
     pagecolor="#ffffff"
     bordercolor="#666666"
     borderopacity="1"
     objecttolerance="10"
     gridtolerance="10"
     guidetolerance="10"
     inkscape:pageopacity="0"
     inkscape:pageshadow="2"
     inkscape:window-width="1280"
     inkscape:window-height="781"
     id="namedview4157"
     showgrid="false"
     inkscape:zoom="1"
     inkscape:cx="171.12532"
     inkscape:cy="4.3115934"
     inkscape:window-x="0"
     inkscape:window-y="0"
     inkscape:window-maximized="0"
     inkscape:current-layer="g4163"
     fit-margin-top="0"
     fit-margin-left="0"
     fit-margin-right="0"
     fit-margin-bottom="0" /><g
     id="g4163"
     inkscape:groupmode="layer"
     inkscape:label="Middlebury Identity Manual_General"
     transform="matrix(1.25,0,0,-1.25,-573.16643,434.1692)"><g
       id="g4875"
       transform="translate(-1.6133568,61.307557)"><g
         transform="translate(539.9772,245.1792)"
         id="g4527"><path
           inkscape:connector-curvature="0"
           id="path4529"
           style="fill:#231f20;fill-opacity:1;fill-rule:nonzero;stroke:none"
           d="m 0,0 1.881,0.372 0.232,2.345 0,8.335 -0.232,2.345 -1.881,0.372 0,0.696 5.015,0 1.185,-3.413 3.506,-9.125 3.598,9.148 1.092,3.39 5.015,0 0,-0.696 -1.858,-0.372 -0.255,-2.345 0,-8.335 0.255,-2.345 1.858,-0.372 0,-0.72 -6.408,0 0,0.72 1.857,0.372 0.256,2.345 0,10.169 L 11.122,2.717 9.938,-0.72 8.429,-0.72 7.175,2.717 3.158,12.886 3.158,2.717 3.413,0.372 5.271,0 5.271,-0.72 0,-0.72 0,0 Z" /></g><g
         id="g4531"><g
           clip-path="url(#clipPath4535)"
           id="g4533"><g
             transform="translate(561.17,245.1792)"
             id="g4539"><path
               inkscape:connector-curvature="0"
               id="path4541"
               style="fill:#231f20;fill-opacity:1;fill-rule:nonzero;stroke:none"
               d="m 0,0 1.625,0.302 0.232,1.765 0,4.783 -0.232,1.787 -1.858,0.302 0,0.72 4.319,0.418 L 3.854,6.85 3.854,2.067 4.086,0.302 5.711,0 5.711,-0.72 0,-0.72 0,0 Z m 1.207,14.256 c 0,0.79 0.65,1.463 1.463,1.463 0.789,0 1.463,-0.65 1.463,-1.486 0,-0.743 -0.604,-1.439 -1.463,-1.439 -0.79,0 -1.463,0.58 -1.463,1.462" /></g><g
             transform="translate(567.7975,249.1493)"
             id="g4543"><path
               inkscape:connector-curvature="0"
               id="path4545"
               style="fill:#231f20;fill-opacity:1;fill-rule:nonzero;stroke:none"
               d="m 0,0 c 0,3.622 2.276,6.177 5.573,6.177 0.65,0 1.161,-0.07 1.788,-0.209 l 0,2.716 -0.256,1.788 -1.857,0.302 0,0.72 4.342,0.418 -0.256,-3.228 0,-10.588 0.256,-1.765 1.509,-0.301 0,-0.72 -3.738,-0.488 0.348,2.206 C 6.641,-4.412 5.55,-5.178 4.017,-5.178 1.672,-5.178 0,-3.158 0,0 m 7.361,-2.136 0,6.873 C 6.711,5.016 6.2,5.155 5.48,5.155 3.297,5.155 2.09,3.344 2.09,0.488 c 0,-2.531 0.929,-4.064 2.74,-4.064 0.813,0 1.672,0.372 2.531,1.44" /></g><g
             transform="translate(579.7345,249.1493)"
             id="g4547"><path
               inkscape:connector-curvature="0"
               id="path4549"
               style="fill:#231f20;fill-opacity:1;fill-rule:nonzero;stroke:none"
               d="m 0,0 c 0,3.622 2.276,6.177 5.573,6.177 0.65,0 1.161,-0.07 1.788,-0.209 l 0,2.716 -0.256,1.788 -1.857,0.302 0,0.72 4.342,0.418 -0.256,-3.228 0,-10.588 0.256,-1.765 1.509,-0.301 0,-0.72 -3.738,-0.488 0.348,2.206 C 6.641,-4.412 5.55,-5.178 4.017,-5.178 1.672,-5.178 0,-3.158 0,0 m 7.361,-2.136 0,6.873 C 6.711,5.016 6.2,5.155 5.48,5.155 3.297,5.155 2.09,3.344 2.09,0.488 c 0,-2.531 0.929,-4.064 2.74,-4.064 0.813,0 1.672,0.372 2.531,1.44" /></g></g></g><g
         transform="translate(592.2992,245.1792)"
         id="g4551"><path
           inkscape:connector-curvature="0"
           id="path4553"
           style="fill:#231f20;fill-opacity:1;fill-rule:nonzero;stroke:none"
           d="m 0,0 1.625,0.302 0.256,1.765 0,10.587 -0.256,1.788 -1.857,0.302 0,0.72 4.319,0.418 -0.233,-3.228 0,-10.587 L 4.11,0.302 5.712,0 5.712,-0.72 0,-0.72 0,0 Z" /></g><g
         id="g4555"><g
           clip-path="url(#clipPath4559)"
           id="g4557"><g
             transform="translate(598.8437,249.5443)"
             id="g4563"><path
               inkscape:connector-curvature="0"
               id="path4565"
               style="fill:#231f20;fill-opacity:1;fill-rule:nonzero;stroke:none"
               d="m 0,0 c 0,3.529 1.788,5.782 4.69,5.782 2.438,0 4.133,-1.579 4.04,-4.876 l -6.71,0 c 0,0 -0.023,-0.326 -0.023,-0.511 0,-2.624 1.277,-4.482 3.738,-4.482 0.743,0 1.579,0.186 2.391,0.79 L 8.591,-3.924 C 7.267,-5.132 6.269,-5.573 4.597,-5.573 1.834,-5.573 0,-3.576 0,0 M 5.062,1.834 6.64,2.067 c 0,1.834 -0.859,2.786 -2.136,2.786 -1.3,0 -2.205,-0.975 -2.461,-3.019 l 3.019,0 z" /></g><g
             transform="translate(609.8352,244.4592)"
             id="g4567"><path
               inkscape:connector-curvature="0"
               id="path4569"
               style="fill:#231f20;fill-opacity:1;fill-rule:nonzero;stroke:none"
               d="m 0,0 0,13.374 -0.232,1.788 -1.857,0.302 0,0.72 4.318,0.418 -0.232,-3.228 0,-4.365 c 0.859,1.138 2.113,1.858 3.53,1.858 2.229,0 3.784,-1.904 3.784,-4.853 0,-3.6 -2.159,-6.502 -6.339,-6.502 -0.975,0 -1.648,0 -2.972,0.488 m 7.268,5.271 c 0,2.391 -1.022,4.017 -2.577,4.017 -0.952,0 -1.858,-0.395 -2.694,-1.37 l 0,-5.132 0.232,-2.02 C 2.787,0.581 3.181,0.487 3.785,0.487 c 2.392,0 3.483,2.137 3.483,4.784" /></g><g
             transform="translate(621.8402,247.5938)"
             id="g4571"><path
               inkscape:connector-curvature="0"
               id="path4573"
               style="fill:#231f20;fill-opacity:1;fill-rule:nonzero;stroke:none"
               d="m 0,0 0,4.435 -0.256,1.788 -1.811,0.302 0,0.72 4.296,0.417 -0.233,-3.227 0,-3.901 c 0,-1.602 0.743,-2.577 2.206,-2.577 0.999,0 1.904,0.603 2.554,1.393 l 0,5.085 -0.232,1.788 -1.811,0.302 0,0.72 4.295,0.417 -0.255,-3.227 0,-4.783 0.255,-1.765 1.672,-0.302 0,-0.72 -3.924,-0.418 0.256,2.09 C 5.92,-2.972 4.945,-3.622 3.297,-3.622 1.253,-3.622 0,-2.322 0,0" /></g></g></g><g
         transform="translate(644.0284,238.9561)"
         id="g4575"><path
           inkscape:connector-curvature="0"
           id="path4577"
           style="fill:#231f20;fill-opacity:1;fill-rule:nonzero;stroke:none"
           d="m 0,0 0,0.789 2.322,0.372 0.998,1.625 0.999,2.346 -3.251,7.941 -0.952,1.811 -1.045,0.278 0,0.72 5.085,0 0,-0.72 -1.486,-0.278 0.558,-1.811 2.089,-5.364 1.951,5.364 0.51,1.811 -1.462,0.278 0,0.72 4.179,0 0,-0.72 L 9.311,14.884 8.429,13.073 3.367,-0.302 0,0 Z" /></g><g
         id="g4579"><g
           clip-path="url(#clipPath4583)"
           id="g4581"><g
             transform="translate(640.9298,255.0142)"
             id="g4587"><path
               inkscape:connector-curvature="0"
               id="path4589"
               style="fill:#231f20;fill-opacity:1;fill-rule:nonzero;stroke:none"
               d="m 0,0 c -1.318,0 -2.358,-0.738 -3.33,-2.373 -0.003,0.025 -0.007,0.05 -0.009,0.075 l 0.004,0.271 c 0.007,0.118 0.021,0.236 0.034,0.354 0.03,0.258 0.059,0.516 0.088,0.774 0.043,0.377 0.086,0.754 0.129,1.131 l -4.082,-0.417 0,-0.719 1.855,-0.302 0.255,-1.785 0,-4.777 -0.255,-1.763 -1.623,-0.301 0,-0.719 5.959,0 0,0.719 -1.854,0.301 -0.255,1.763 0,0.555 0,1.508 0,1.674 0,0.459 0,0.19 c 0,0.03 0.002,0.062 0.004,0.094 0.672,0.831 1.573,1.131 2.268,1.131 0.487,0 0.974,-0.162 1.368,-0.348 l 0.581,2.343 C 0.649,-0.023 0.418,0 0,0" /></g><g
             transform="translate(493.7305,211.9718)"
             id="g4591"><path
               inkscape:connector-curvature="0"
               id="path4593"
               style="fill:#365181;fill-opacity:1;fill-rule:nonzero;stroke:none"
               d="m 0,0 -0.362,0.174 c -17.092,8.198 -25.21,18.581 -29.011,25.848 -4.147,7.931 -4.211,13.86 -4.211,14.108 l 0,33.926 67.131,0 0,-33.923 c 0,-0.248 -0.046,-6.176 -4.182,-14.108 C 25.576,18.759 17.468,8.375 0.361,0.174 L 0,0 Z m -31.911,72.383 0,-32.25 c 0,-0.054 0.078,-5.843 4.071,-13.432 3.664,-6.961 11.464,-16.9 27.84,-24.845 16.389,7.948 24.179,17.886 27.831,24.847 3.981,7.587 4.043,13.374 4.043,13.431 l 0,32.249 -63.785,0 z" /></g><g
             transform="translate(481.6346,273.4203)"
             id="g4595"><path
               inkscape:connector-curvature="0"
               id="path4597"
               style="fill:#365181;fill-opacity:1;fill-rule:nonzero;stroke:none"
               d="M 0,0 C -0.755,1.012 -1.76,1.825 -2.928,2.343 -2.481,1.696 -2.104,0.903 -1.814,0 L 0,0 Z" /></g><g
             transform="translate(476.3601,276.2378)"
             id="g4599"><path
               inkscape:connector-curvature="0"
               id="path4601"
               style="fill:#365181;fill-opacity:1;fill-rule:nonzero;stroke:none"
               d="m 0,0 0,-2.818 2.145,0 C 1.604,-1.343 0.817,-0.344 0,0" /></g><g
             transform="translate(472.2645,269.653)"
             id="g4603"><path
               inkscape:connector-curvature="0"
               id="path4605"
               style="fill:#365181;fill-opacity:1;fill-rule:nonzero;stroke:none"
               d="m 0,0 2.841,0 0,2.512 -2.515,0 C 0.151,1.755 0.036,0.913 0,0" /></g><g
             transform="translate(472.9604,273.4203)"
             id="g4607"><path
               inkscape:connector-curvature="0"
               id="path4609"
               style="fill:#365181;fill-opacity:1;fill-rule:nonzero;stroke:none"
               d="m 0,0 2.145,0 0,2.818 C 1.328,2.474 0.541,1.475 0,0" /></g><g
             transform="translate(472.5905,265.885)"
             id="g4611"><path
               inkscape:connector-curvature="0"
               id="path4613"
               style="fill:#365181;fill-opacity:1;fill-rule:nonzero;stroke:none"
               d="m 0,0 2.515,0 0,2.513 -2.841,0 C -0.29,1.6 -0.175,0.758 0,0" /></g><g
             transform="translate(475.1053,261.8126)"
             id="g4615"><path
               inkscape:connector-curvature="0"
               id="path4617"
               style="fill:#365181;fill-opacity:1;fill-rule:nonzero;stroke:none"
               d="m 0,0 0,2.818 -2.144,0 C -1.604,1.343 -0.817,0.344 0,0" /></g><g
             transform="translate(471.0105,268.3983)"
             id="g4619"><path
               inkscape:connector-curvature="0"
               id="path4621"
               style="fill:#365181;fill-opacity:1;fill-rule:nonzero;stroke:none"
               d="m 0,0 -2.615,0 c 0.076,-0.893 0.314,-1.738 0.681,-2.513 l 2.237,0 C 0.137,-1.728 0.033,-0.885 0,0" /></g><g
             transform="translate(478.875,272.1655)"
             id="g4623"><path
               inkscape:connector-curvature="0"
               id="path4625"
               style="fill:#365181;fill-opacity:1;fill-rule:nonzero;stroke:none"
               d="m 0,0 -2.515,0 0,-2.512 2.841,0 C 0.29,-1.6 0.175,-0.758 0,0" /></g><g
             transform="translate(471.3127,272.1655)"
             id="g4627"><path
               inkscape:connector-curvature="0"
               id="path4629"
               style="fill:#365181;fill-opacity:1;fill-rule:nonzero;stroke:none"
               d="m 0,0 -2.237,0 c -0.367,-0.775 -0.605,-1.62 -0.681,-2.512 l 2.616,0 C -0.269,-1.628 -0.165,-0.785 0,0" /></g><g
             transform="translate(469.8318,264.6302)"
             id="g4631"><path
               inkscape:connector-curvature="0"
               id="path4633"
               style="fill:#365181;fill-opacity:1;fill-rule:nonzero;stroke:none"
               d="M 0,0 C 0.755,-1.011 1.759,-1.824 2.926,-2.341 2.479,-1.695 2.103,-0.902 1.813,0 L 0,0 Z" /></g><g
             transform="translate(480.4554,269.653)"
             id="g4635"><path
               inkscape:connector-curvature="0"
               id="path4637"
               style="fill:#365181;fill-opacity:1;fill-rule:nonzero;stroke:none"
               d="M 0,0 2.615,0 C 2.539,0.893 2.302,1.738 1.935,2.512 l -2.238,0 C -0.138,1.727 -0.034,0.885 0,0" /></g><g
             transform="translate(472.7576,275.7623)"
             id="g4639"><path
               inkscape:connector-curvature="0"
               id="path4641"
               style="fill:#365181;fill-opacity:1;fill-rule:nonzero;stroke:none"
               d="m 0,0 c -1.167,-0.517 -2.171,-1.33 -2.926,-2.342 l 1.813,0 C -0.823,-1.44 -0.447,-0.647 0,0" /></g><g
             transform="translate(480.1522,265.885)"
             id="g4643"><path
               inkscape:connector-curvature="0"
               id="path4645"
               style="fill:#365181;fill-opacity:1;fill-rule:nonzero;stroke:none"
               d="m 0,0 2.238,0 c 0.366,0.775 0.605,1.62 0.68,2.513 l -2.615,0 C 0.269,1.628 0.166,0.785 0,0" /></g><g
             transform="translate(494.4438,282.3104)"
             id="g4647"><path
               inkscape:connector-curvature="0"
               id="path4649"
               style="fill:#365181;fill-opacity:1;fill-rule:nonzero;stroke:none"
               d="M 0,0 0,-0.836 C 0.638,-1.109 1.088,-1.718 1.088,-2.434 1.088,-3.15 0.638,-3.758 0,-4.031 l 0,-1.016 c 0.959,-0.35 2.689,-1.189 3.48,-2.893 0.741,-1.596 0.876,-2.978 0.883,-3.735 l 0.682,0 0,-1.464 -11.554,0 0,1.464 0.682,0 c 0.007,0.757 0.143,2.139 0.884,3.735 0.789,1.7 2.519,2.543 3.479,2.894 l 0,1.015 c -0.637,0.274 -1.088,0.881 -1.088,1.597 0,0.716 0.451,1.324 1.088,1.597 l 0,0.837 -28.724,0 0,-29.312 c 0,0 0.005,-1.319 0.441,-3.513 0.05,0.017 0.101,0.034 0.151,0.051 3.141,1.072 8.808,2.91 12.561,2.91 3.753,0 5.131,-0.995 8.731,-0.995 0.415,0 0.816,-0.009 1.209,-0.023 l 0,6.582 12.727,0 0,-6.798 c 2.549,0.077 4.448,0.003 6.744,-0.412 3.178,-0.575 5.132,-2.643 7.39,-2.987 2.26,-0.345 4.251,0.153 6.664,0.038 0.622,-0.03 1.074,-0.051 1.476,-0.07 0.817,3.2 0.819,5.217 0.819,5.217 L 28.725,0 0,0 Z m -18.711,-21.909 c -4.755,0 -8.624,3.869 -8.624,8.624 0,4.756 3.869,8.624 8.624,8.624 4.756,0 8.624,-3.868 8.624,-8.624 0,-4.755 -3.868,-8.624 -8.624,-8.624 m 25.26,-1.145 -14.561,0 0,1.464 2.205,0 0,7.197 10.149,0 0,-7.197 2.207,0 0,-1.464 z m 10.946,12.965 c 1.52,2.767 4.902,2.821 4.902,2.821 0.05,0.055 0,-8.41 0,-8.41 0,0 -3.382,-0.054 -4.902,-2.822 l 0,8.411 z m -6.096,2.894 c 0,0 3.346,-0.055 4.85,-2.822 l 0,-8.41 c -1.504,2.767 -4.85,2.821 -4.85,2.821 0,0 -0.049,8.465 0,8.411 m 13.569,-9.902 -8.042,-4.716 -8.048,4.716 0,9.105 1.255,0 0,-8.386 6.793,-3.981 6.787,3.981 0,8.386 1.255,0 0,-9.105 z" /></g><g
             transform="translate(479.2014,268.3983)"
             id="g4651"><path
               inkscape:connector-curvature="0"
               id="path4653"
               style="fill:#365181;fill-opacity:1;fill-rule:nonzero;stroke:none"
               d="m 0,0 -2.841,0 0,-2.513 2.515,0 C -0.151,-1.755 -0.037,-0.913 0,0" /></g><g
             transform="translate(476.3601,261.813)"
             id="g4655"><path
               inkscape:connector-curvature="0"
               id="path4657"
               style="fill:#365181;fill-opacity:1;fill-rule:nonzero;stroke:none"
               d="M 0,0 C 0.817,0.344 1.603,1.343 2.145,2.817 L 0,2.817 0,0 Z" /></g><g
             transform="translate(478.7068,262.288)"
             id="g4659"><path
               inkscape:connector-curvature="0"
               id="path4661"
               style="fill:#365181;fill-opacity:1;fill-rule:nonzero;stroke:none"
               d="m 0,0 c 1.167,0.517 2.172,1.33 2.927,2.342 l -1.813,0 C 0.823,1.44 0.447,0.646 0,0" /></g></g></g><path
         inkscape:connector-curvature="0"
         id="path4663"
         style="fill:#365181;fill-opacity:1;fill-rule:nonzero;stroke:none"
         d="m 495.068,252.018 -2.713,0 0,4.695 2.713,0 0,-4.695 z" /><g
         id="g4665"><g
           clip-path="url(#clipPath4669)"
           id="g4667"><g
             transform="translate(491.88,229.8574)"
             id="g4673"><path
               inkscape:connector-curvature="0"
               id="path4675"
               style="fill:#365181;fill-opacity:1;fill-rule:nonzero;stroke:none"
               d="m 0,0 c -0.207,0.165 -0.529,0.331 -1.066,0.554 -0.406,-0.215 -0.696,-0.546 -0.696,-1.025 0,-0.579 0.414,-0.952 1.059,-0.952 0.579,0 0.976,0.34 0.976,0.828 C 0.273,-0.339 0.183,-0.14 0,0" /></g><g
             transform="translate(491.1852,231.1809)"
             id="g4677"><path
               inkscape:connector-curvature="0"
               id="path4679"
               style="fill:#365181;fill-opacity:1;fill-rule:nonzero;stroke:none"
               d="m 0,0 c 0.364,0.182 0.795,0.471 0.795,0.926 0,0.439 -0.323,0.703 -0.877,0.703 -0.53,0 -0.877,-0.289 -0.877,-0.719 C -0.959,0.43 -0.388,0.157 0,0" /></g><g
             transform="translate(495.7769,232.7857)"
             id="g4681"><path
               inkscape:connector-curvature="0"
               id="path4683"
               style="fill:#365181;fill-opacity:1;fill-rule:nonzero;stroke:none"
               d="m 0,0 c -0.323,0 -0.571,-0.257 -0.728,-0.695 -0.132,-0.356 -0.19,-0.827 -0.19,-1.414 0,-0.555 0.041,-0.985 0.115,-1.291 0.149,-0.645 0.447,-0.918 0.794,-0.918 0.348,0 0.629,0.298 0.778,0.778 0.107,0.355 0.157,0.827 0.157,1.381 0,0.538 -0.041,0.91 -0.124,1.266 C 0.645,-0.248 0.363,0 0,0" /></g><g
             transform="translate(502.1824,240.2381)"
             id="g4685"><path
               inkscape:connector-curvature="0"
               id="path4687"
               style="fill:#365181;fill-opacity:1;fill-rule:nonzero;stroke:none"
               d="m 0,0 0,-0.029 -16.911,0 -12.255,-7.677 c 4.365,-5.34 10.902,-10.907 20.701,-15.6 9.821,4.702 16.363,10.28 20.724,15.627 L 0,0 Z m -13.851,-12.324 -2.622,0 0,0.736 0.96,0 0,3.672 c -0.083,-0.05 -0.339,-0.215 -0.563,-0.322 -0.223,-0.108 -0.529,-0.24 -0.628,-0.273 l -0.223,0.488 1.662,1.166 0.645,0 0,-4.731 0.769,0 0,-0.736 z m 2.755,-0.158 c -0.951,0 -1.952,0.472 -1.952,1.564 0,0.669 0.446,1.207 1.058,1.423 -0.504,0.206 -0.885,0.711 -0.885,1.265 0,1.05 0.977,1.464 1.878,1.464 1.042,0 1.762,-0.554 1.762,-1.365 0,-0.678 -0.529,-1.059 -1.1,-1.273 0.802,-0.331 1.307,-0.728 1.307,-1.415 0,-1.067 -1.117,-1.663 -2.068,-1.663 m 4.674,0.033 c -1.456,0 -1.919,1.696 -1.919,2.879 0,1.63 0.827,2.804 1.927,2.804 1.48,0 1.944,-1.63 1.944,-2.829 0,-1.712 -0.794,-2.854 -1.952,-2.854 m 4.631,0 c -1.455,0 -1.919,1.696 -1.919,2.879 0,1.63 0.828,2.804 1.928,2.804 1.48,0 1.943,-1.63 1.943,-2.829 0,-1.712 -0.793,-2.854 -1.952,-2.854" /></g><g
             transform="translate(500.408,232.7857)"
             id="g4689"><path
               inkscape:connector-curvature="0"
               id="path4691"
               style="fill:#365181;fill-opacity:1;fill-rule:nonzero;stroke:none"
               d="m 0,0 c -0.323,0 -0.571,-0.257 -0.728,-0.695 -0.132,-0.356 -0.19,-0.827 -0.19,-1.414 0,-0.555 0.041,-0.985 0.116,-1.291 0.149,-0.645 0.446,-0.918 0.794,-0.918 0.347,0 0.629,0.298 0.777,0.778 0.108,0.355 0.158,0.827 0.158,1.381 0,0.538 -0.042,0.91 -0.125,1.266 C 0.645,-0.248 0.364,0 0,0" /></g></g></g><path
         inkscape:connector-curvature="0"
         id="path4693"
         style="fill:#365181;fill-opacity:1;fill-rule:nonzero;stroke:none"
         d="m 502.443,248.714 -17.463,0 0,1.255 17.463,0 0,-1.255 z" /><path
         inkscape:connector-curvature="0"
         id="path4695"
         style="fill:#365181;fill-opacity:1;fill-rule:nonzero;stroke:none"
         d="m 500.287,241.887 -13.15,0 0,5.052 13.15,0 0,-5.052 z m -11.895,1.254 10.641,0 0,2.542 -10.641,0 0,-2.542 z" /><path
         inkscape:connector-curvature="0"
         id="path4697"
         style="fill:#365181;fill-opacity:1;fill-rule:nonzero;stroke:none"
         d="m 495.068,262.311 -2.713,0 0,4.212 2.713,0 0,-4.212 z" /><path
         inkscape:connector-curvature="0"
         id="path4699"
         style="fill:#365181;fill-opacity:1;fill-rule:nonzero;stroke:none"
         d="m 490.058,262.313 0.836,0 0,4.204 -0.836,0 0,-4.204 z" /><path
         inkscape:connector-curvature="0"
         id="path4701"
         style="fill:#365181;fill-opacity:1;fill-rule:nonzero;stroke:none"
         d="m 496.529,262.313 0.836,0 0,4.204 -0.836,0 0,-4.204 z" /><g
         id="g4703"><g
           clip-path="url(#clipPath4707)"
           id="g4705"><g
             transform="translate(494.5089,279.8751)"
             id="g4711"><path
               inkscape:connector-curvature="0"
               id="path4713"
               style="fill:#365181;fill-opacity:1;fill-rule:nonzero;stroke:none"
               d="m 0,0 c 0,-0.416 -0.357,-0.753 -0.797,-0.753 -0.44,0 -0.796,0.337 -0.796,0.753 0,0.418 0.356,0.757 0.796,0.757 C -0.357,0.757 0,0.418 0,0" /></g><g
             transform="translate(485.2413,244.7569)"
             id="g4715"><path
               inkscape:connector-curvature="0"
               id="path4717"
               style="fill:#365181;fill-opacity:1;fill-rule:nonzero;stroke:none"
               d="m 0,0 -14.518,-9.154 c 0.31,-0.452 0.634,-0.907 0.973,-1.365 L 0,-1.978 0,0 Z" /></g><g
             transform="translate(502.1816,242.7081)"
             id="g4719"><path
               inkscape:connector-curvature="0"
               id="path4721"
               style="fill:#365181;fill-opacity:1;fill-rule:nonzero;stroke:none"
               d="m 0,0 13.521,-8.545 c 0.34,0.457 0.665,0.912 0.975,1.363 L 0,1.979 0,0 Z" /></g></g></g></g></g></svg>