<?xml version="1.0" encoding="utf-8"?>
<!-- Generator: Adobe Illustrator 25.4.1, SVG Export Plug-In . SVG Version: 6.00 Build 0)  -->
<svg version="1.1"
	 id="svg4155" inkscape:version="0.91 r13725" sodipodi:docname="logo_college.svg" xmlns:cc="http://creativecommons.org/ns#" xmlns:dc="http://purl.org/dc/elements/1.1/" xmlns:inkscape="http://www.inkscape.org/namespaces/inkscape" xmlns:rdf="http://www.w3.org/1999/02/22-rdf-syntax-ns#" xmlns:sodipodi="http://sodipodi.sourceforge.net/DTD/sodipodi-0.dtd" xmlns:svg="http://www.w3.org/2000/svg"
	 xmlns="http://www.w3.org/2000/svg" xmlns:xlink="http://www.w3.org/1999/xlink" x="0px" y="0px" viewBox="0 0 186.9 142.4"
	 style="enable-background:new 0 0 186.9 142.4;" xml:space="preserve">
<style type="text/css">
	.st0{fill:#FFFFFF;}
	.st1{clip-path:url(#SVGID_00000118392780469187337430000005669183871801847947_);fill:#FFFFFF;}
	.st2{clip-path:url(#SVGID_00000039114878635601841760000004849774819075746735_);fill:#FFFFFF;}
	.st3{clip-path:url(#SVGID_00000081614388573407361870000006737404286283685802_);fill:#FFFFFF;}
	.st4{clip-path:url(#SVGID_00000052079207402440758110000003481295092975072658_);fill:#FFFFFF;}
	.st5{clip-path:url(#SVGID_00000024712764390524987580000000077199066125801917_);fill:#FFFFFF;}
</style>
<path id="path4529" inkscape:connector-curvature="0" class="st0" d="M22.5,132.5l1.8-0.4c0.3-0.1,0.6-0.3,0.6-0.7l0.2-2.3
	c0,0,0-0.1,0-0.1v-10.3c0,0,0-0.1,0-0.1l-0.2-2.3c0-0.3-0.3-0.6-0.6-0.7l-1.8-0.4v-0.9h5.7c0.3,0,0.6,0.2,0.7,0.5l1.3,3.7l3.7,9.5
	c0.3,0.7,1.2,0.7,1.5,0l3.7-9.5c0,0,0,0,0,0l1.2-3.7c0.1-0.3,0.4-0.5,0.7-0.5h5.7v0.9l-1.8,0.4c-0.3,0.1-0.6,0.3-0.6,0.7l-0.3,2.3
	c0,0,0,0.1,0,0.1v10.3c0,0,0,0.1,0,0.1l0.3,2.3c0,0.3,0.3,0.6,0.6,0.7l1.8,0.4v0.9h-8v-0.9l1.8-0.4c0.3-0.1,0.6-0.3,0.6-0.7l0.3-2.3
	c0,0,0-0.1,0-0.1v-8.5c0-0.9-1.2-1.1-1.5-0.3l-3.5,8.9l-1.3,3.8c-0.1,0.3-0.4,0.5-0.7,0.5h-0.8c-0.3,0-0.6-0.2-0.7-0.5l-1.4-3.8
	l-3.5-8.9c-0.3-0.8-1.5-0.6-1.5,0.3v8.5c0,0,0,0.1,0,0.1l0.3,2.3c0,0.3,0.3,0.6,0.6,0.7l1.8,0.4v0.9h-6.6V132.5z"/>
<g>
	<defs>
		<path id="SVGID_1_" d="M-624.6,396.9h988.4c0.4,0,0.8-0.4,0.8-0.8v-763.4c0-0.4-0.4-0.8-0.8-0.8h-988.4c-0.4,0-0.8,0.4-0.8,0.8
			v763.4C-625.4,396.5-625,396.9-624.6,396.9z"/>
	</defs>
	<clipPath id="SVGID_00000096051711705311207070000008223875111569611164_">
		<use xlink:href="#SVGID_1_"  style="overflow:visible;"/>
	</clipPath>
	
		<path id="path4541" inkscape:connector-curvature="0" style="clip-path:url(#SVGID_00000096051711705311207070000008223875111569611164_);fill:#FFFFFF;" d="
		M49,132.5l2-0.4l0.3-2.2v-6l-0.3-2.2l-2.3-0.4v-0.9l5.4-0.5l-0.3,4v6l0.3,2.2l2,0.4v0.9H49V132.5z M50.5,114.7c0-1,0.8-1.8,1.8-1.8
		c1,0,1.8,0.8,1.8,1.9c0,0.9-0.8,1.8-1.8,1.8C51.3,116.5,50.5,115.8,50.5,114.7"/>
	
		<path id="path4545" inkscape:connector-curvature="0" style="clip-path:url(#SVGID_00000096051711705311207070000008223875111569611164_);fill:#FFFFFF;" d="
		M57.3,127.5c0-4.5,2.8-7.7,7-7.7c0.8,0,1.5,0.1,2.2,0.3v-3.4l-0.3-2.2l-2.3-0.4v-0.9l5.4-0.5l-0.3,4v13.2l0.3,2.2l1.9,0.4v0.9
		l-4.7,0.6l0.4-2.8c-1.3,1.8-2.7,2.8-4.6,2.8C59.4,134,57.3,131.5,57.3,127.5 M66.5,130.2v-8.6c-0.8-0.3-1.5-0.5-2.4-0.5
		c-2.7,0-4.2,2.3-4.2,5.8c0,3.2,1.2,5.1,3.4,5.1C64.3,132,65.4,131.5,66.5,130.2"/>
	
		<path id="path4549" inkscape:connector-curvature="0" style="clip-path:url(#SVGID_00000096051711705311207070000008223875111569611164_);fill:#FFFFFF;" d="
		M72.2,127.5c0-4.5,2.8-7.7,7-7.7c0.8,0,1.5,0.1,2.2,0.3v-3.4l-0.3-2.2l-2.3-0.4v-0.9l5.4-0.5l-0.3,4v13.2l0.3,2.2l1.9,0.4v0.9
		l-4.7,0.6l0.4-2.8c-1.3,1.8-2.7,2.8-4.6,2.8C74.3,134,72.2,131.5,72.2,127.5 M81.4,130.2v-8.6c-0.8-0.3-1.5-0.5-2.4-0.5
		c-2.7,0-4.2,2.3-4.2,5.8c0,3.2,1.2,5.1,3.4,5.1C79.3,132,80.3,131.5,81.4,130.2"/>
</g>
<path id="path4553" inkscape:connector-curvature="0" class="st0" d="M87.9,132.5l1.5-0.3c0.3-0.1,0.6-0.3,0.6-0.7l0.2-1.6
	c0,0,0-0.1,0-0.1v-13.1c0,0,0-0.1,0-0.1L90,115c0-0.3-0.3-0.6-0.7-0.7l-1.8-0.3v-0.9l4.5-0.4c0.5,0,0.9,0.4,0.9,0.8l-0.2,3.1
	c0,0,0,0,0,0.1v13.1c0,0,0,0.1,0,0.1l0.2,1.6c0,0.3,0.3,0.6,0.6,0.7l1.5,0.3v0.9h-7.1V132.5z"/>
<g>
	<defs>
		<path id="SVGID_00000051351725241693068680000007706366554709364111_" d="M-624.6,396.9h988.4c0.4,0,0.8-0.4,0.8-0.8v-763.4
			c0-0.4-0.4-0.8-0.8-0.8h-988.4c-0.4,0-0.8,0.4-0.8,0.8v763.4C-625.4,396.5-625,396.9-624.6,396.9z"/>
	</defs>
	<clipPath id="SVGID_00000126283043785079507420000018443382539535028405_">
		<use xlink:href="#SVGID_00000051351725241693068680000007706366554709364111_"  style="overflow:visible;"/>
	</clipPath>
	
		<path id="path4565" inkscape:connector-curvature="0" style="clip-path:url(#SVGID_00000126283043785079507420000018443382539535028405_);fill:#FFFFFF;" d="
		M96.1,127c0-4.4,2.2-7.2,5.9-7.2c3,0,5.2,2,5.1,6.1h-8.4c0,0,0,0.4,0,0.6c0,3.3,1.6,5.6,4.7,5.6c0.9,0,2-0.2,3-1l0.6,0.8
		c-1.7,1.5-2.9,2.1-5,2.1C98.4,134,96.1,131.5,96.1,127 M102.4,124.7l2-0.3c0-2.3-1.1-3.5-2.7-3.5c-1.6,0-2.8,1.2-3.1,3.8
		C98.6,124.7,102.4,124.7,102.4,124.7z"/>
	
		<path id="path4569" inkscape:connector-curvature="0" style="clip-path:url(#SVGID_00000126283043785079507420000018443382539535028405_);fill:#FFFFFF;" d="
		M109.8,133.4v-16.7l-0.3-2.2l-2.3-0.4v-0.9l5.4-0.5l-0.3,4v5.5c1.1-1.4,2.6-2.3,4.4-2.3c2.8,0,4.7,2.4,4.7,6.1
		c0,4.5-2.7,8.1-7.9,8.1C112.3,134,111.5,134,109.8,133.4 M118.9,126.8c0-3-1.3-5-3.2-5c-1.2,0-2.3,0.5-3.4,1.7v6.4l0.3,2.5
		c0.7,0.2,1.2,0.3,1.9,0.3C117.5,132.8,118.9,130.1,118.9,126.8"/>
	
		<path id="path4573" inkscape:connector-curvature="0" style="clip-path:url(#SVGID_00000126283043785079507420000018443382539535028405_);fill:#FFFFFF;" d="
		M124.8,129.5v-5.5l-0.3-2.2l-2.3-0.4v-0.9l5.4-0.5l-0.3,4v4.9c0,2,0.9,3.2,2.8,3.2c1.2,0,2.4-0.8,3.2-1.7v-6.4l-0.3-2.2l-2.3-0.4
		v-0.9l5.4-0.5l-0.3,4v6l0.3,2.2l2.1,0.4v0.9l-4.9,0.5l0.3-2.6c-1.4,1.9-2.6,2.7-4.6,2.7C126.4,134,124.8,132.4,124.8,129.5"/>
</g>
<path id="path4577" inkscape:connector-curvature="0" class="st0" d="M152.6,140.3v-1l2.5-0.4c0.2,0,0.4-0.2,0.5-0.4l1-1.7
	c0,0,0-0.1,0.1-0.1l1.1-2.6c0.1-0.2,0.1-0.4,0-0.6l-3.9-9.6c0,0,0,0,0-0.1l-1-1.9c-0.1-0.2-0.3-0.3-0.5-0.4l-1-0.3v-0.9h6.4v0.9
	l-1,0.2c-0.5,0.1-0.7,0.6-0.6,1l0.4,1.4c0,0,0,0,0,0.1l1.8,4.7c0.3,0.7,1.2,0.7,1.5,0l1.7-4.7c0,0,0,0,0-0.1l0.4-1.4
	c0.1-0.4-0.2-0.9-0.6-1l-1-0.2v-0.9h5.2v0.9l-1.1,0.3c-0.2,0.1-0.4,0.2-0.5,0.4l-0.9,1.9c0,0,0,0,0,0.1l-6.1,16.1
	c-0.1,0.3-0.5,0.5-0.8,0.5L152.6,140.3z"/>
<g>
	<defs>
		<path id="SVGID_00000175289678026303057940000002501184496142858418_" d="M-624.6,396.9h988.4c0.4,0,0.8-0.4,0.8-0.8v-763.4
			c0-0.4-0.4-0.8-0.8-0.8h-988.4c-0.4,0-0.8,0.4-0.8,0.8v763.4C-625.4,396.5-625,396.9-624.6,396.9z"/>
	</defs>
	<clipPath id="SVGID_00000140699736856040308850000013904216267348144263_">
		<use xlink:href="#SVGID_00000175289678026303057940000002501184496142858418_"  style="overflow:visible;"/>
	</clipPath>
	
		<path id="path4589" inkscape:connector-curvature="0" style="clip-path:url(#SVGID_00000140699736856040308850000013904216267348144263_);fill:#FFFFFF;" d="
		M148.7,120.2c-1.6,0-2.9,0.9-4.2,3c0,0,0-0.1,0-0.1l0-0.3c0-0.1,0-0.3,0-0.4c0-0.3,0.1-0.6,0.1-1c0.1-0.5,0.1-0.9,0.2-1.4l-5.1,0.5
		v0.9l2.3,0.4l0.3,2.2v6l-0.3,2.2l-2,0.4v0.9h7.4v-0.9l-2.3-0.4l-0.3-2.2v-0.7v-1.9v-2.1v-0.6v-0.2c0,0,0-0.1,0-0.1
		c0.8-1,2-1.4,2.8-1.4c0.6,0,1.2,0.2,1.7,0.4l0.7-2.9C149.5,120.2,149.2,120.2,148.7,120.2"/>
	
		<path id="path4593" inkscape:connector-curvature="0" style="clip-path:url(#SVGID_00000140699736856040308850000013904216267348144263_);fill:#FFFFFF;" d="
		M93.5,102.9l-0.5-0.2C71.7,92.5,61.5,79.5,56.8,70.4c-5.2-9.9-5.3-17.3-5.3-17.6V10.4h83.9v42.4c0,0.3-0.1,7.7-5.2,17.6
		c-4.7,9.1-14.9,22.1-36.3,32.3L93.5,102.9z M53.6,12.5v40.3c0,0.1,0.1,7.3,5.1,16.8c4.6,8.7,14.3,21.1,34.8,31.1
		c20.5-9.9,30.2-22.4,34.8-31.1c5-9.5,5.1-16.7,5.1-16.8V12.5H53.6z"/>
	
		<path id="path4597" inkscape:connector-curvature="0" style="clip-path:url(#SVGID_00000140699736856040308850000013904216267348144263_);fill:#FFFFFF;" d="
		M78.4,26.1c-0.9-1.3-2.2-2.3-3.7-2.9c0.6,0.8,1,1.8,1.4,2.9H78.4z"/>
	
		<path id="path4601" inkscape:connector-curvature="0" style="clip-path:url(#SVGID_00000140699736856040308850000013904216267348144263_);fill:#FFFFFF;" d="
		M71.8,22.6v3.5h2.7C73.8,24.3,72.8,23,71.8,22.6"/>
	
		<path id="path4605" inkscape:connector-curvature="0" style="clip-path:url(#SVGID_00000140699736856040308850000013904216267348144263_);fill:#FFFFFF;" d="
		M66.6,30.8h3.6v-3.1h-3.1C66.8,28.6,66.7,29.7,66.6,30.8"/>
	
		<path id="path4609" inkscape:connector-curvature="0" style="clip-path:url(#SVGID_00000140699736856040308850000013904216267348144263_);fill:#FFFFFF;" d="
		M67.5,26.1h2.7v-3.5C69.2,23,68.2,24.3,67.5,26.1"/>
	
		<path id="path4613" inkscape:connector-curvature="0" style="clip-path:url(#SVGID_00000140699736856040308850000013904216267348144263_);fill:#FFFFFF;" d="
		M67.1,35.6h3.1v-3.1h-3.6C66.7,33.6,66.8,34.6,67.1,35.6"/>
	
		<path id="path4617" inkscape:connector-curvature="0" style="clip-path:url(#SVGID_00000140699736856040308850000013904216267348144263_);fill:#FFFFFF;" d="
		M70.2,40.6v-3.5h-2.7C68.2,39,69.2,40.2,70.2,40.6"/>
	
		<path id="path4621" inkscape:connector-curvature="0" style="clip-path:url(#SVGID_00000140699736856040308850000013904216267348144263_);fill:#FFFFFF;" d="
		M65.1,32.4h-3.3c0.1,1.1,0.4,2.2,0.9,3.1h2.8C65.3,34.6,65.1,33.5,65.1,32.4"/>
	
		<path id="path4625" inkscape:connector-curvature="0" style="clip-path:url(#SVGID_00000140699736856040308850000013904216267348144263_);fill:#FFFFFF;" d="
		M74.9,27.7h-3.1v3.1h3.6C75.3,29.7,75.1,28.6,74.9,27.7"/>
	
		<path id="path4629" inkscape:connector-curvature="0" style="clip-path:url(#SVGID_00000140699736856040308850000013904216267348144263_);fill:#FFFFFF;" d="
		M65.5,27.7h-2.8c-0.5,1-0.8,2-0.9,3.1h3.3C65.1,29.7,65.3,28.7,65.5,27.7"/>
	
		<path id="path4633" inkscape:connector-curvature="0" style="clip-path:url(#SVGID_00000140699736856040308850000013904216267348144263_);fill:#FFFFFF;" d="
		M63.6,37.1c0.9,1.3,2.2,2.3,3.7,2.9c-0.6-0.8-1-1.8-1.4-2.9H63.6z"/>
	
		<path id="path4637" inkscape:connector-curvature="0" style="clip-path:url(#SVGID_00000140699736856040308850000013904216267348144263_);fill:#FFFFFF;" d="
		M76.9,30.8h3.3c-0.1-1.1-0.4-2.2-0.9-3.1h-2.8C76.7,28.7,76.8,29.7,76.9,30.8"/>
	
		<path id="path4641" inkscape:connector-curvature="0" style="clip-path:url(#SVGID_00000140699736856040308850000013904216267348144263_);fill:#FFFFFF;" d="
		M67.3,23.2c-1.5,0.6-2.7,1.7-3.7,2.9h2.3C66.2,25,66.7,24,67.3,23.2"/>
	
		<path id="path4645" inkscape:connector-curvature="0" style="clip-path:url(#SVGID_00000140699736856040308850000013904216267348144263_);fill:#FFFFFF;" d="
		M76.5,35.6h2.8c0.5-1,0.8-2,0.8-3.1h-3.3C76.8,33.5,76.7,34.6,76.5,35.6"/>
	
		<path id="path4649" inkscape:connector-curvature="0" style="clip-path:url(#SVGID_00000140699736856040308850000013904216267348144263_);fill:#FFFFFF;" d="
		M94.4,15v1c0.8,0.3,1.4,1.1,1.4,2s-0.6,1.7-1.4,2v1.3c1.2,0.4,3.4,1.5,4.3,3.6c0.9,2,1.1,3.7,1.1,4.7h0.9v1.8H86.2v-1.8h0.9
		c0-0.9,0.2-2.7,1.1-4.7c1-2.1,3.1-3.2,4.3-3.6v-1.3c-0.8-0.3-1.4-1.1-1.4-2s0.6-1.7,1.4-2v-1H56.6v36.6c0,0,0,1.6,0.6,4.4
		c0.1,0,0.1,0,0.2-0.1c3.9-1.3,11-3.6,15.7-3.6c4.7,0,6.4,1.2,10.9,1.2c0.5,0,1,0,1.5,0v-8.2h15.9v8.5c3.2-0.1,5.6,0,8.4,0.5
		c4,0.7,6.4,3.3,9.2,3.7c2.8,0.4,5.3-0.2,8.3,0c0.8,0,1.3,0.1,1.8,0.1c1-4,1-6.5,1-6.5V15H94.4z M71,42.4c-5.9,0-10.8-4.8-10.8-10.8
		c0-5.9,4.8-10.8,10.8-10.8c5.9,0,10.8,4.8,10.8,10.8C81.8,37.6,76.9,42.4,71,42.4 M102.6,43.8H84.4V42h2.8v-9h12.7v9h2.8V43.8z
		 M116.2,27.6c1.9-3.5,6.1-3.5,6.1-3.5c0.1-0.1,0,10.5,0,10.5s-4.2,0.1-6.1,3.5C116.2,38.1,116.2,27.6,116.2,27.6z M108.6,24
		c0,0,4.2,0.1,6.1,3.5v10.5c-1.9-3.5-6.1-3.5-6.1-3.5S108.6,23.9,108.6,24 M125.6,36.4l-10.1,5.9l-10.1-5.9V25h1.6v10.5l8.5,5l8.5-5
		V25h1.6C125.6,25,125.6,36.4,125.6,36.4z"/>
	
		<path id="path4653" inkscape:connector-curvature="0" style="clip-path:url(#SVGID_00000140699736856040308850000013904216267348144263_);fill:#FFFFFF;" d="
		M75.3,32.4h-3.6v3.1h3.1C75.1,34.6,75.3,33.6,75.3,32.4"/>
	
		<path id="path4657" inkscape:connector-curvature="0" style="clip-path:url(#SVGID_00000140699736856040308850000013904216267348144263_);fill:#FFFFFF;" d="
		M71.8,40.6c1-0.4,2-1.7,2.7-3.5h-2.7V40.6z"/>
	
		<path id="path4661" inkscape:connector-curvature="0" style="clip-path:url(#SVGID_00000140699736856040308850000013904216267348144263_);fill:#FFFFFF;" d="
		M74.7,40c1.5-0.6,2.7-1.7,3.7-2.9h-2.3C75.7,38.2,75.3,39.2,74.7,40"/>
</g>
<path id="path4663" inkscape:connector-curvature="0" class="st0" d="M94.4,52.9h-1.8c-0.4,0-0.8-0.4-0.8-0.8v-4.3
	c0-0.4,0.4-0.8,0.8-0.8h1.8c0.4,0,0.8,0.4,0.8,0.8v4.3C95.2,52.5,94.8,52.9,94.4,52.9z"/>
<g>
	<defs>
		<path id="SVGID_00000147182327977054276100000010770643643301384864_" d="M-624.6,396.9h988.4c0.4,0,0.8-0.4,0.8-0.8v-763.4
			c0-0.4-0.4-0.8-0.8-0.8h-988.4c-0.4,0-0.8,0.4-0.8,0.8v763.4C-625.4,396.5-625,396.9-624.6,396.9z"/>
	</defs>
	<clipPath id="SVGID_00000125588251249344448070000009282031962612820116_">
		<use xlink:href="#SVGID_00000147182327977054276100000010770643643301384864_"  style="overflow:visible;"/>
	</clipPath>
	
		<path id="path4675" inkscape:connector-curvature="0" style="clip-path:url(#SVGID_00000125588251249344448070000009282031962612820116_);fill:#FFFFFF;" d="
		M91.2,80.6c-0.3-0.2-0.7-0.4-1.3-0.7c-0.5,0.3-0.9,0.7-0.9,1.3c0,0.7,0.5,1.2,1.3,1.2c0.7,0,1.2-0.4,1.2-1
		C91.5,81,91.4,80.8,91.2,80.6"/>
	
		<path id="path4679" inkscape:connector-curvature="0" style="clip-path:url(#SVGID_00000125588251249344448070000009282031962612820116_);fill:#FFFFFF;" d="
		M90.3,78.9c0.5-0.2,1-0.6,1-1.2c0-0.5-0.4-0.9-1.1-0.9c-0.7,0-1.1,0.4-1.1,0.9C89.1,78.4,89.8,78.7,90.3,78.9"/>
	
		<path id="path4683" inkscape:connector-curvature="0" style="clip-path:url(#SVGID_00000125588251249344448070000009282031962612820116_);fill:#FFFFFF;" d="
		M96,76.9c-0.4,0-0.7,0.3-0.9,0.9c-0.2,0.4-0.2,1-0.2,1.8c0,0.7,0.1,1.2,0.1,1.6c0.2,0.8,0.6,1.1,1,1.1c0.4,0,0.8-0.4,1-1
		c0.1-0.4,0.2-1,0.2-1.7c0-0.7-0.1-1.1-0.2-1.6C96.8,77.2,96.5,76.9,96,76.9"/>
	
		<path id="path4687" inkscape:connector-curvature="0" style="clip-path:url(#SVGID_00000125588251249344448070000009282031962612820116_);fill:#FFFFFF;" d="
		M104,67.6L104,67.6l-21.1,0l-15.3,9.6c5.5,6.7,13.6,13.6,25.9,19.5c12.3-5.9,20.5-12.8,25.9-19.5L104,67.6z M86.7,83h-3.3v-0.9h1.2
		v-4.6c-0.1,0.1-0.4,0.3-0.7,0.4c-0.3,0.1-0.7,0.3-0.8,0.3l-0.3-0.6l2.1-1.5h0.8v5.9h1C86.7,82.1,86.7,83,86.7,83z M90.2,83.2
		c-1.2,0-2.4-0.6-2.4-2c0-0.8,0.6-1.5,1.3-1.8c-0.6-0.3-1.1-0.9-1.1-1.6c0-1.3,1.2-1.8,2.3-1.8c1.3,0,2.2,0.7,2.2,1.7
		c0,0.8-0.7,1.3-1.4,1.6c1,0.4,1.6,0.9,1.6,1.8C92.8,82.5,91.4,83.2,90.2,83.2 M96,83.2c-1.8,0-2.4-2.1-2.4-3.6c0-2,1-3.5,2.4-3.5
		c1.9,0,2.4,2,2.4,3.5C98.5,81.7,97.5,83.2,96,83.2 M101.8,83.2c-1.8,0-2.4-2.1-2.4-3.6c0-2,1-3.5,2.4-3.5c1.8,0,2.4,2,2.4,3.5
		C104.2,81.7,103.3,83.2,101.8,83.2"/>
	
		<path id="path4691" inkscape:connector-curvature="0" style="clip-path:url(#SVGID_00000125588251249344448070000009282031962612820116_);fill:#FFFFFF;" d="
		M101.8,76.9c-0.4,0-0.7,0.3-0.9,0.9c-0.2,0.4-0.2,1-0.2,1.8c0,0.7,0.1,1.2,0.1,1.6c0.2,0.8,0.6,1.1,1,1.1c0.4,0,0.8-0.4,1-1
		c0.1-0.4,0.2-1,0.2-1.7c0-0.7-0.1-1.1-0.2-1.6C102.6,77.2,102.3,76.9,101.8,76.9"/>
</g>
<path id="path4693" inkscape:connector-curvature="0" class="st0" d="M103.6,57H83.3c-0.4,0-0.8-0.4-0.8-0.8l0,0
	c0-0.4,0.4-0.8,0.8-0.8h20.3c0.4,0,0.8,0.4,0.8,0.8l0,0C104.4,56.7,104,57,103.6,57z"/>
<path id="path4695" inkscape:connector-curvature="0" class="st0" d="M100.9,65.5H86c-0.4,0-0.8-0.4-0.8-0.8V60
	c0-0.4,0.4-0.8,0.8-0.8h14.9c0.4,0,0.8,0.4,0.8,0.8v4.7C101.7,65.2,101.3,65.5,100.9,65.5z M87.6,64h11.7c0.4,0,0.8-0.4,0.8-0.8
	v-1.6c0-0.4-0.4-0.8-0.8-0.8H87.6c-0.4,0-0.8,0.4-0.8,0.8v1.6C86.8,63.6,87.2,64,87.6,64z"/>
<path id="path4697" inkscape:connector-curvature="0" class="st0" d="M94.4,40h-1.8c-0.4,0-0.8-0.4-0.8-0.8v-3.7
	c0-0.4,0.4-0.8,0.8-0.8h1.8c0.4,0,0.8,0.4,0.8,0.8v3.7C95.2,39.7,94.8,40,94.4,40z"/>
<path id="path4699" inkscape:connector-curvature="0" class="st0" d="M88.9,40h1v-5.3h-1V40z"/>
<path id="path4701" inkscape:connector-curvature="0" class="st0" d="M97,40h1v-5.3h-1V40z"/>
<g>
	<defs>
		<path id="SVGID_00000063605540136537895750000018298281742960886699_" d="M-624.6,396.9h988.4c0.4,0,0.8-0.4,0.8-0.8v-763.4
			c0-0.4-0.4-0.8-0.8-0.8h-988.4c-0.4,0-0.8,0.4-0.8,0.8v763.4C-625.4,396.5-625,396.9-624.6,396.9z"/>
	</defs>
	<clipPath id="SVGID_00000161600702754332856470000005215571523480876931_">
		<use xlink:href="#SVGID_00000063605540136537895750000018298281742960886699_"  style="overflow:visible;"/>
	</clipPath>
	
		<path id="path4713" inkscape:connector-curvature="0" style="clip-path:url(#SVGID_00000161600702754332856470000005215571523480876931_);fill:#FFFFFF;" d="
		M94.5,18.1c0,0.5-0.4,0.9-1,0.9c-0.6,0-1-0.4-1-0.9c0-0.5,0.4-0.9,1-0.9C94,17.1,94.5,17.5,94.5,18.1"/>
	
		<path id="path4717" inkscape:connector-curvature="0" style="clip-path:url(#SVGID_00000161600702754332856470000005215571523480876931_);fill:#FFFFFF;" d="
		M82.9,62L64.7,73.4c0.4,0.6,0.8,1.1,1.2,1.7l16.9-10.7V62z"/>
	
		<path id="path4721" inkscape:connector-curvature="0" style="clip-path:url(#SVGID_00000161600702754332856470000005215571523480876931_);fill:#FFFFFF;" d="
		M104,64.5l16.9,10.7c0.4-0.6,0.8-1.1,1.2-1.7L104,62V64.5z"/>
</g>
</svg>
