<?xml version="1.0" encoding="utf-8"?>
<!-- Generator: Adobe Illustrator 25.4.1, SVG Export Plug-In . SVG Version: 6.00 Build 0)  -->
<svg version="1.1" id="Layer_1" xmlns="http://www.w3.org/2000/svg" xmlns:xlink="http://www.w3.org/1999/xlink" x="0px" y="0px"
	 viewBox="0 0 118.38 118.23" style="enable-background:new 0 0 118.38 118.23;" xml:space="preserve">
<style type="text/css">
	.st0{fill:#FFFFFF;}
</style>
<g>
	<g>
		<path class="st0" d="M64.6,12.68c-0.17,0.83-0.26,1.69-0.55,2.48c-0.27,0.71-0.51,1.44-0.85,2.13c-0.32,0.64-0.55,1.32-0.84,1.97
			c-0.24,0.53-0.47,1.05-0.74,1.55c-0.42,0.77-0.75,1.6-1.19,2.36c-0.17,0.29-0.3,0.61-0.47,0.91c-0.39,0.7-0.24,1.41-0.02,2.11
			c0.39,1.24,0.97,2.36,1.7,3.41c0.96,1.38,2.02,2.66,3.48,3.48c0.98,0.56,2.04,0.93,3.19,0.9c0.31-0.01,0.61,0.06,0.92,0.11
			c0.31,0.05,0.44,0.23,0.5,0.56c0.09,0.59,0.08,1.17,0.08,1.76c0.02,1.73,0.51,3.29,1.57,4.62c0.55,0.69,1.34,0.96,2.19,1.02
			c1.41,0.1,2.47-0.57,3.42-1.63c0.92-1.03,1.63-2.17,2.11-3.48c0.21-0.59,0.52-0.67,0.91-0.21c0.76,0.89,1.66,1.6,2.65,2.18
			c0.83,0.49,1.7,0.94,2.63,1.21c0.87,0.25,1.09,0.58,0.91,1.52c-0.35,1.84-0.21,3.67,0.14,5.5c0.33,1.74,1.02,3.33,1.83,4.86
			c0.85,1.62,2.04,2.94,3.36,4.15c0.45,0.4,0.95,0.73,1.37,1.18c0.38,0.42,0.55,1.07,0.38,1.61c-0.08,0.22-0.24,0.29-0.44,0.36
			c-0.66,0.22-1.35,0.35-2.01,0.58c-1.24,0.44-2.17,1.29-2.99,2.32c-0.48,0.61-0.98,1.21-1.4,1.87c-0.85,1.37-1.57,2.81-2,4.4
			c-0.27,1.01-0.54,2.03-0.49,3.1c0.02,0.58,0.09,1.16,0.1,1.73c0.01,0.99-0.33,1.86-0.98,2.56c-0.34,0.37-0.73,0.34-1.11,0.03
			c-0.75-0.61-1.46-1.25-2.13-1.95c-0.74-0.78-1.09-1.72-1.28-2.76c-0.08-0.42-0.16-0.83-0.27-1.23c-0.1-0.31-0.28-0.59-0.65-0.59
			c-0.35,0-0.55,0.25-0.69,0.55c-0.39,0.8-0.72,1.65-1.18,2.4c-0.52,0.85-1.1,1.65-1.85,2.31c-0.72,0.63-1.47,1.22-2.3,1.7
			c-1.29,0.74-2.72,1.1-4.14,1.35c-1.47,0.26-2.98,0.33-4.49,0.18c-1.4-0.14-2.76-0.51-4.13-0.82c-0.47-0.11-0.96-0.27-1.45-0.37
			c-1.55-0.32-3.1-0.71-4.7-0.74c-0.59-0.01-1.18-0.14-1.77,0.03c-0.39,0.11-0.49,0.41-0.24,0.75c0.5,0.69,1.04,1.34,1.61,1.95
			c0.79,0.84,1.3,1.9,1.84,2.93c0.87,1.68,1.47,3.47,2.05,5.27c0.61,1.88,1.03,3.81,1.31,5.79c0.19,1.4,0.33,2.81,0.3,4.23
			c-0.03,1.43,0.06,2.87-0.01,4.31c-0.04,0.81-0.08,1.65-0.26,2.38c-0.21,0.86,0.01,1.71-0.24,2.54c-0.23,0.75-0.64,1.15-1.38,1
			c-2.26-0.48-4.54-0.86-6.76-1.53c-1.15-0.35-2.34-0.64-3.45-1.12c-1.12-0.48-2.27-0.85-3.39-1.32c-0.81-0.33-1.57-0.77-2.33-1.23
			c-1.05-0.64-2.11-1.28-3.07-2.06c-1.83-1.48-3.51-3.12-4.87-5.11c-0.37-0.54-0.84-0.99-1.28-1.48c-0.1-0.1-0.2-0.26-0.37-0.16
			c-0.17,0.1-0.14,0.3-0.09,0.47c0.19,0.59,0.36,1.21,0.58,1.79c0.4,1.05,0.85,2.08,1.36,3.1c0.7,1.37,1.52,2.64,2.42,3.86
			c0.9,1.25,1.92,2.38,2.93,3.52c1.04,1.17,2.26,2.14,3.49,3.08c0.97,0.75,2.02,1.34,3.07,1.93c0.7,0.4,0.89,0.6,0.56,1.69
			c-0.15,0.47-0.28,0.95-0.41,1.43c-0.18,0.64-0.4,1.27-0.61,1.9c-0.2,0.59-0.61,1.05-1.18,1.34c-0.61,0.3-1.25,0.54-1.88,0.79
			c-0.97,0.38-1.87,0.09-2.75-0.36c-0.68-0.35-1.37-0.68-2.06-1c-0.74-0.35-1.33-0.93-1.99-1.39c-0.17-0.12-0.3-0.33-0.19-0.56
			c0.1-0.21,0.31-0.15,0.49-0.11c0.62,0.11,1.2,0.4,1.83,0.42c0.6,0.01,1.1-0.23,1.49-0.7c0.29-0.35,0.27-0.73-0.05-1.05
			c-0.51-0.5-1.04-0.98-1.52-1.5c-0.42-0.45-0.87-0.39-1.34-0.18c-0.68,0.3-1.39,0.52-2.1,0.61c-1.06,0.12-2.09,0.06-2.86-0.95
			c-0.83-1.09-1.73-2.11-2.36-3.36c-0.11-0.21-0.19-0.45-0.01-0.62c0.19-0.18,0.36,0.03,0.5,0.15c1.08,0.95,2.24,1.08,3.48,0.4
			c0.52-0.29,0.66-0.71,0.36-1.26c-0.28-0.5-0.61-0.96-1.04-1.35c-0.25-0.22-0.54-0.28-0.86-0.21c-1.3,0.27-2.54,0.04-3.74-0.51
			c-0.4-0.18-0.65-0.5-0.84-0.9c-0.55-1.18-1.04-2.39-1.3-3.68c-0.06-0.31-0.08-0.62-0.07-0.93c0.01-0.11,0.05-0.21,0.17-0.25
			c0.1-0.03,0.17,0.03,0.24,0.11c0.07,0.09,0.16,0.17,0.22,0.27c0.59,1.11,2.13,1.29,3.09,1.05c0.35-0.09,0.56-0.44,0.48-0.86
			c-0.14-0.72-0.4-1.4-0.7-2.06c-0.2-0.44-0.67-0.53-1.07-0.6c-1.04-0.2-1.89-0.72-2.62-1.5c-0.41-0.43-0.48-1.03-0.51-1.59
			c-0.05-1.05-0.03-2.1,0.25-3.13c0.05-0.18,0.07-0.42,0.3-0.44c0.23-0.02,0.29,0.22,0.34,0.4c0.21,0.64,0.62,1.02,1.28,1.09
			c0.37,0.03,0.64-0.15,0.67-0.55c0.03-0.45,0.08-0.9-0.04-1.37c-0.13-0.49-0.13-1.02-0.13-1.53c0-1.17,0-2.34,0.06-3.5
			c0.04-0.6,0.03-1.21,0.16-1.8c0.08-0.38,0.25-0.65,0.62-0.75c0.45-0.11,0.84-0.02,1.1,0.4c0.5,0.82,0.95,1.66,1.49,2.44
			c0.86,1.25,1.87,2.36,3.01,3.34c0.47,0.4,0.9,0.86,1.42,1.15c0.77,0.44,1.51,0.92,2.32,1.29c1.23,0.57,2.52,0.94,3.79,1.38
			c1.1,0.38,2.25,0.59,3.4,0.75c0.46,0.06,0.94,0.01,1.41-0.01c0.16,0,0.37-0.02,0.41-0.26c0.04-0.23-0.13-0.31-0.29-0.4
			c-0.68-0.4-1.4-0.71-2.08-1.09c-1.09-0.62-2.12-1.36-3.11-2.17c-0.66-0.54-1.34-1.05-2.02-1.58c-1.12-0.84-2.06-1.88-2.96-2.97
			c-1-1.21-1.93-2.47-2.68-3.88c-0.79-1.5-1.15-3.1-1.18-4.81c-0.04-1.33,0.18-2.61,0.55-3.87c0.12-0.42,0.32-0.82,0.46-1.22
			c0.25-0.72,0.08-0.99-0.63-1c-1.26-0.02-2.51-0.15-3.74-0.46c-1.85-0.46-3.24-1.54-3.94-3.43c-0.39-1.07-0.37-2.22-0.02-3.33
			c0.64-2,1.89-3.45,3.65-4.45c1.07-0.6,2.13-1.19,3.25-1.67c1.1-0.46,2.21-0.93,3.26-1.5c1.2-0.66,2.48-1.2,3.46-2.25
			c1.21-1.29,1.79-2.79,1.24-4.59c-0.38-1.24-1.29-1.91-2.48-2.19c-0.21-0.05-0.41-0.12-0.6-0.22c-0.25-0.15-0.5-0.18-0.8-0.12
			c-0.4,0.08-0.81-0.01-1.22-0.01c-1.77,0-3.47,0.39-5.16,0.86c-1.01,0.29-2.02,0.56-3.02,0.86c-0.77,0.23-1.5,0.57-2.24,0.9
			c-0.92,0.41-1.82,0.82-2.74,1.23c-1.26,0.55-2.55,1.06-3.56,2.1c-1.02,1.04-1.73,2.27-2.05,3.75c-0.36,1.67-0.06,3.25,0.54,4.79
			c0.7,1.82,1.69,3.48,2.68,5.13c0.9,1.49,1.86,2.94,2.9,4.31c0.56,0.75,1.12,1.49,1.46,2.37c0.36,0.96,0.54,1.94,0.25,2.96
			c-0.12,0.39-0.32,0.73-0.5,1.07c-0.43,0.83-0.96,1.57-1.58,2.26c-0.19,0.21-0.3,0.49-0.53,0.67c-0.12,0.1-0.23,0.23-0.4,0.16
			c-0.18-0.08-0.21-0.26-0.26-0.44c-0.24-0.88-0.4-1.79-0.85-2.57c-0.4-0.72-0.93-1.36-1.39-2.04c-1.16-1.71-2.52-3.28-3.6-5.05
			c-0.6-0.98-1.09-2.02-1.46-3.14c-0.65-1.92-0.61-3.85-0.35-5.81c0.04-0.34,0.06-0.68,0.17-1.01c0.05-0.16,0.05-0.39-0.12-0.49
			c-0.17-0.12-0.31,0.04-0.42,0.16c-0.4,0.45-0.65,1-0.88,1.54c-0.6,1.44-0.98,2.95-1.05,4.52c-0.04,1.15-0.03,2.28,0.25,3.44
			C9.58,70,10.56,72,11.43,74.06c0.51,1.22,1.3,2.26,1.97,3.38c0.62,1.06,1.28,2.09,1.85,3.2c0.49,0.95,0.55,1.88,0.36,2.89
			c-0.15,0.83-0.4,1.64-0.82,2.38c-0.44,0.8-0.75,1.67-1.15,2.49c-0.09,0.18-0.15,0.45-0.4,0.43c-0.26-0.01-0.27-0.28-0.32-0.49
			c-0.36-1.65-1.23-3.03-2.14-4.39c-0.93-1.37-1.86-2.75-2.83-4.09c-0.75-1.04-1.36-2.15-1.91-3.3c-0.39-0.82-0.58-1.75-0.67-2.67
			c-0.1-0.96-0.11-1.92-0.07-2.89c0.08-1.82,0.41-3.6,0.92-5.32c0.35-1.17,0.66-2.36,1.15-3.49c0.35-0.82,0.57-1.69,0.92-2.5
			c0.48-1.09,1.04-2.14,1.69-3.13c0.17-0.27,0.36-0.53,0.41-0.86c0.05-0.33-0.09-0.5-0.4-0.49c-0.2,0.02-0.42,0.04-0.59,0.14
			c-1.29,0.76-2.63,1.44-3.88,2.29c-0.61,0.42-1.28,0.73-1.87,1.18c-0.78,0.6-1.46,1.32-2.12,2.05c-0.33,0.38-0.57,0.87-0.72,1.38
			c-0.06,0.19-0.12,0.4-0.28,0.53c-0.18,0.16-0.34,0.12-0.38-0.14c-0.11-0.9-0.14-1.82-0.09-2.73c0.02-0.43-0.06-0.87-0.03-1.32
			c0.09-1.26,0.39-2.43,0.98-3.53c0.31-0.59,0.79-0.99,1.31-1.32c1.35-0.86,2.79-1.53,4.25-2.16c0.97-0.41,1.93-0.83,2.87-1.32
			c1.28-0.66,2.61-1.18,3.91-1.79c1.43-0.68,2.91-1.28,4.36-1.9c1.51-0.66,3.02-1.28,4.54-1.88c1.59-0.62,3.19-1.23,4.87-1.56
			c1.17-0.23,2.34-0.55,3.52-0.67c1.3-0.14,2.6-0.08,3.92,0.09c1.08,0.13,2.1,0.41,3.03,0.94c1.34,0.77,2.54,1.71,3.2,3.26
			c0.49,1.15,0.69,2.33,0.59,3.55c-0.06,0.74-0.35,1.44-0.7,2.08c-1.2,2.19-3.1,3.54-5.17,4.7c-0.84,0.48-1.67,0.97-2.54,1.36
			c-0.85,0.38-1.71,0.73-2.53,1.15c-1.25,0.65-2.67,1.06-3.58,2.26c-0.9,1.19-0.85,2.55,0.52,3.51c1.25,0.88,2.66,0.96,4.11,0.93
			c0.49-0.01,0.98-0.01,1.47,0c1.87,0.02,3.72-0.12,5.56-0.45c1.03-0.18,2.07-0.29,3.1-0.46c0.49-0.08,0.98-0.24,1.46-0.37
			c1.05-0.26,2.11-0.52,3.15-0.82c1.6-0.46,3.2-0.87,4.73-1.58c1.54-0.72,3.03-1.53,4.43-2.49c1.57-1.08,3.03-2.31,4.39-3.68
			c1.12-1.12,2-2.42,2.91-3.73c0.84-1.21,1.39-2.55,1.96-3.89c0.39-0.9,0.66-1.88,0.88-2.84c0.31-1.4,0.65-2.78,0.74-4.22
			c0.02-0.38-0.06-0.74-0.17-1.08c-0.15-0.43-0.51-0.45-0.76-0.09c-0.11,0.15-0.17,0.32-0.19,0.51c-0.13,0.91-0.43,1.78-0.96,2.52
			c-0.52,0.71-1.2,1.25-2.04,1.54c-0.77,0.27-1.54,0.5-2.33,0.67c-0.38,0.08-0.77,0.1-1.14,0.24c-0.49,0.19-0.55,0.4-0.21,0.79
			c0.48,0.57,1.09,0.97,1.64,1.46c0.68,0.58,1.47,1.04,2.09,1.71c0.31,0.33,0.31,0.71,0.09,1.12c-1.11,2.02-2.81,3.21-4.92,3.77
			c-0.95,0.25-1.93,0.41-2.92,0.39c-0.84-0.01-1.34-0.2-1.12-1.37c0.19-1,0.34-2.02,0.72-2.97c0.67-1.71,1.39-3.39,2.6-4.78
			c0.09-0.1,0.16-0.23,0.04-0.34c-0.12-0.11-0.21,0.02-0.29,0.1c-1.35,1.3-2.92,2.22-4.65,2.78c-1.27,0.42-2.6,0.44-3.92,0.32
			c-0.91-0.09-1.32-0.59-1.3-1.57c0.03-1.13,0.2-2.24,0.57-3.31c0.51-1.43,1.27-2.68,2.21-3.85c0.4-0.51,0.82-0.98,1.35-1.35
			c0.15-0.09,0.22-0.26,0.17-0.42c-0.35-1.13-0.02-2.16,0.32-3.2c0.57-1.77,1.48-3.29,3-4.31c0.57-0.38,1.19-0.66,1.79-0.99
			c0.42-0.23,0.54-0.57,0.34-1.03c-0.08-0.2-0.2-0.4-0.32-0.58c-0.4-0.58-0.73-0.61-1.23-0.1c-0.41,0.42-0.81,0.86-1.32,1.14
			c-1.17,0.67-2.38,1.25-3.72,1.35c-1.21,0.09-2.43-0.03-3.63-0.3c-0.38-0.08-0.45-0.47-0.52-0.8c-0.14-0.71,0.11-1.35,0.34-1.98
			c0.44-1.22,1.04-2.35,1.88-3.34c0.48-0.56,0.92-1.11,1.56-1.52c0.77-0.48,1.63-0.63,2.46-0.88c0.14-0.04,0.28-0.06,0.42-0.09
			c0.35-0.05,0.59-0.2,0.64-0.61c0.06-0.47-0.06-0.88-0.38-1.21c-0.17-0.17-0.4-0.1-0.61,0c-0.59,0.32-1.1,0.78-1.74,1.02
			c-0.6,0.21-1.22,0.37-1.84,0.48c-1.85,0.32-3.67,0.04-5.47-0.44c-0.51-0.14-0.73-0.54-0.67-1.1c0.07-0.65,0.42-1.18,0.64-1.77
			c0.43-1.16,1.02-2.26,1.77-3.23c1.39-1.82,3.2-2.95,5.38-3.41c0.33-0.07,0.66-0.13,0.99-0.2c0.38-0.07,0.61-0.33,0.64-0.72
			c0.04-0.6,0.04-1.2,0.04-1.8c0-0.22,0.01-0.5-0.21-0.6c-0.23-0.11-0.43,0.06-0.61,0.2c-0.8,0.6-1.6,1.21-2.47,1.69
			c-1.02,0.56-2.03,1.17-3.17,1.44c-1.11,0.26-2.21,0.61-3.36,0.73c-0.67,0.07-1.34,0.16-2,0.25c-0.53,0.06-0.61,0.25-0.4,0.76
			c0.4,0.92,0.6,1.91,0.95,2.86c0.33,0.87,0.63,1.77,0.97,2.64c0.36,0.92,0.09,1.72-0.9,2.31c-0.89,0.53-1.73,1.15-2.67,1.58
			c-1.16,0.51-2.33,0.89-3.57,1.12c-1.14,0.21-2.29,0.36-3.44,0.45c-0.96,0.08-1.94,0.14-2.91-0.01c-0.93-0.14-1.11,0.06-0.9,1.01
			c0.16,0.71,0.56,1.31,0.77,2c0.56,1.77,1.35,3.46,1.92,5.23c0.2,0.6,0.03,0.92-0.45,1.37c-0.6,0.56-1.3,0.93-1.92,1.44
			c-0.77,0.63-1.69,0.92-2.56,1.31c-0.89,0.39-1.81,0.69-2.75,0.9c-0.77,0.16-1.55,0.28-2.33,0.35c-0.93,0.08-1.82-0.07-2.7-0.33
			c-0.7-0.2-1.15,0.08-1.53,0.62c-0.46,0.67-0.96,1.31-1.48,1.93c-1.18,1.38-2.35,2.77-3.58,4.13c-0.42,0.46-0.9,0.88-1.4,1.25
			c-0.34,0.25-0.6,0.6-0.95,0.86c-0.88,0.67-1.7,1.44-2.6,2.07c-1.03,0.72-2.13,1.32-3.32,1.71c-0.56,0.19-1.03,0.07-0.87-0.78
			c0.11-0.61,0.05-1.25,0.25-1.84c0.45-1.37,0.61-2.81,1.02-4.18c0.55-1.83,1.12-3.66,1.78-5.45c0.55-1.5,1.19-2.96,1.89-4.39
			c0.57-1.17,1.16-2.33,1.75-3.5c0.34-0.68,0.78-1.31,1.19-1.95c0.45-0.69,0.82-1.44,1.38-2.04c0.04-0.04,0.08-0.1,0.12-0.14
			c0.6-0.59,0.96-0.46,1.18,0.37c0.26,0.96,0.63,1.88,1.08,2.77c0.37,0.74,0.7,1.51,1.09,2.24c0.66,1.23,1.29,2.48,1.86,3.77
			c0.08,0.18,0.17,0.44,0.42,0.42c0.27-0.02,0.32-0.28,0.42-0.5c0.54-1.19,1.11-2.37,1.72-3.53c0.9-1.7,2.11-3.15,3.4-4.51
			c0.6-0.63,1.3-1.14,1.98-1.68c0.77-0.62,1.62-1.17,2.22-1.97c0.37-0.49,0.58-1.11,0.89-1.65c0.66-1.14,1.41-2.21,2.38-3.1
			c0.55-0.51,1.01-1.14,1.6-1.59c0.94-0.71,1.83-1.52,2.88-2.08c0.79-0.41,1.55-0.87,2.33-1.3c0.11-0.06,0.25-0.11,0.23-0.27
			c-0.02-0.18-0.18-0.19-0.31-0.2c-0.93-0.09-1.85-0.2-2.78-0.25c-1.63-0.09-3.26-0.25-4.87-0.62c-1.03-0.23-2.03-0.58-3.01-0.98
			c-0.18-0.08-0.34-0.19-0.34-0.42c-0.01-0.3,0.14-0.53,0.37-0.71c1.16-0.92,2.44-1.66,3.68-2.46c1-0.64,2.01-1.29,3.04-1.87
			c0.85-0.49,1.76-0.87,2.62-1.34c1.11-0.61,2.28-1.07,3.45-1.51c1.16-0.44,2.35-0.82,3.54-1.16c1.95-0.56,3.93-1.04,5.93-1.33
			c1.64-0.24,3.27-0.51,4.94-0.46c1.56,0.05,3.11,0.07,4.62,0.49c1.4,0.4,2.81,0.78,4.07,1.57c1.75,1.1,2.82,2.71,3.46,4.73
			C65.23,8.78,65.08,10.72,64.6,12.68z M60.18,35c-0.37-0.03-0.55,0.24-0.69,0.55c-0.41,0.86-1.04,1.51-1.76,2.07
			c-0.7,0.55-1.47,0.92-2.3,1.18c-0.7,0.22-1.39,0.42-2.13,0.37c-0.36-0.03-0.72-0.03-1.07,0.01c-0.3,0.03-0.4,0.22-0.2,0.49
			c0.2,0.29,0.41,0.57,0.63,0.84c0.53,0.66,1.18,1.19,1.73,1.83c0.59,0.69,1.24,1.31,1.9,1.91c0.28,0.26,0.46,0.2,0.54-0.18
			c0.18-0.85,0.33-1.7,0.5-2.56c0.14-0.69,0.3-1.37,0.65-2c0.39-0.68,0.78-1.37,1.47-1.77c0.44-0.26,0.92-0.44,1.35-0.7
			c0.71-0.42,0.66-0.66,0.27-1.12c-0.12-0.14-0.2-0.33-0.32-0.47C60.61,35.25,60.43,35.08,60.18,35z M60.85,78.98
			c-0.89,0.05-1.78,0.1-2.64,0.37c-0.81,0.24-1.36,0.88-1.42,1.7c-0.04,0.56,0,1.11,0.2,1.62c0.72,1.83,1.48,3.66,2.54,5.31
			c0.51,0.8,1.1,1.55,1.73,2.26c0.68,0.75,1.37,1.49,2.15,2.15c0.44,0.36,0.93,0.65,1.4,0.97c0.94,0.65,1.91,1.29,2.96,1.74
			c0.73,0.31,1.49,0.54,2.26,0.69c0.49,0.1,0.7,0.48,0.49,0.87c-0.29,0.52-0.57,1.04-0.91,1.52c-1.27,1.77-2.7,3.39-4.29,4.86
			c-0.64,0.58-1.38,1.03-1.99,1.66c-0.76,0.8-0.54,2.08,0.44,2.53c0.1,0.04,0.21,0.09,0.3,0.16c0.96,0.65,2.04,1.03,3.09,1.45
			c0.66,0.26,1.36,0.41,2.04,0.59c0.49,0.13,0.96,0.34,1.49,0.39c0.67,0.07,1.36,0.1,1.99,0.37c0.45,0.19,0.64,0.54,0.51,1.03
			c-0.12,0.5-0.3,0.98-0.77,1.27c-0.17,0.1-0.33,0.25-0.3,0.49c0.03,0.24,0.23,0.3,0.41,0.39c0.78,0.34,1.6,0.21,2.4,0.18
			c1.36-0.07,1.93-0.54,2.57-2.05c0.22-0.52,0.52-0.91,1.09-0.95c0.4-0.03,0.8-0.04,1.2-0.04c0.52,0.02,0.85,0.3,1.01,0.83
			c0.25,0.82-0.04,1.77-0.71,2.25c-0.18,0.12-0.42,0.23-0.36,0.5c0.05,0.28,0.31,0.26,0.52,0.32c0.45,0.12,0.91,0.04,1.37,0.09
			c1.85,0.23,3.97-1.3,3.63-3.61c-0.07-0.45,0.09-0.79,0.44-0.96c0.47-0.23,0.99-0.51,1.51-0.17c0.5,0.32,0.81,0.82,0.86,1.46
			c0.06,0.78-0.08,1.52-0.55,2.16c-0.1,0.14-0.19,0.3-0.09,0.47c0.09,0.16,0.25,0.1,0.39,0.09c0.46-0.04,0.88-0.17,1.31-0.32
			c1.17-0.38,2.12-1.02,2.69-2.21c0.44-0.92,0.55-1.87,0.3-2.88c-0.07-0.29-0.09-0.57,0.15-0.81c0.4-0.4,1.19-0.43,1.61-0.05
			c0.52,0.46,0.67,1.1,0.61,1.77c-0.04,0.56-0.14,1.13-0.43,1.64c-0.08,0.14-0.09,0.31,0.03,0.46c0.12,0.14,0.26,0.08,0.4,0.04
			c0.46-0.16,0.8-0.51,1.21-0.77c1.22-0.76,1.97-1.88,2.27-3.36c0.17-0.84,0.09-1.69,0.25-2.53c0.07-0.35-0.06-0.72-0.33-1.01
			c-0.35-0.36-0.75-0.65-1.18-0.91c-0.98-0.57-1.81-1.43-2.92-1.8c-0.6-0.2-1.21-0.22-1.8,0.03c-0.72,0.31-1.41,0.7-2.1,1.06
			c-0.72,0.38-1.49,0.66-2.23,0.98c-0.99,0.44-1.97,0.92-3,1.24c-1.7,0.53-3.4,1.11-5.17,1.32c-0.76,0.09-1.52,0.26-2.28,0.28
			c-1.02,0.04-2.03,0.14-3.06,0.11c-0.89-0.03-1.75-0.21-2.6-0.42c-0.17-0.04-0.34-0.12-0.35-0.35c0-0.25,0.16-0.38,0.35-0.45
			c1.49-0.64,2.91-1.41,4.25-2.35c1.83-1.28,3.61-2.61,5.19-4.22c0.57-0.58,1.17-1.12,1.71-1.72c1.59-1.78,2.76-3.86,3.83-6
			c0.41-0.83,0.32-1.24-0.41-1.8c-0.13-0.1-0.25-0.22-0.38-0.32c-1.42-1.11-2.93-2.08-4.46-3.01c-1.2-0.73-2.43-1.39-3.7-2
			c-1.02-0.49-2.07-0.92-3.13-1.31c-1.3-0.48-2.58-1.02-3.87-1.52c-1.43-0.55-2.92-0.84-4.27-1.2
			C64.44,79.17,62.66,78.89,60.85,78.98z M91.18,26.3c1.02,0.14,2.03,0.14,2.99-0.27c1.02-0.44,1.86-1.17,2.57-2.05
			c0.07-0.08,0.12-0.18,0.05-0.29c-0.08-0.11-0.18-0.06-0.28-0.04c-0.79,0.25-1.6,0.44-2.41,0.38c-1.82-0.13-3.45-0.86-4.94-1.93
			c-1.21-0.87-2.4-1.78-3.61-2.67c-0.13-0.1-0.28-0.18-0.23-0.37c0.05-0.18,0.21-0.17,0.35-0.19c1.14-0.07,2.22,0.23,3.29,0.53
			c0.66,0.18,1.34,0.28,1.98,0.56c0.29,0.12,0.65,0.03,0.97,0.11c0.83,0.2,1.66,0.34,2.48,0.59c0.43,0.13,0.9,0.28,1.38,0.27
			c0.54-0.01,1,0.34,1.52,0.46c1.19,0.27,2.29,0.72,2.7,2.12c0.06,0.19,0.24,0.22,0.41,0.12c0.19-0.1,0.33-0.26,0.39-0.47
			c0.23-0.77,0.54-1.52,0.61-2.32c0.03-0.42,0.05-0.83-0.06-1.24c-0.24-0.93-0.85-1.51-1.58-2.06c-1.06-0.8-2.23-1.33-3.43-1.82
			c-0.42-0.17-0.81-0.15-1.22,0.14c-1.03,0.72-2.04,1.5-3.25,1.85c-1.33,0.41-2.61,0.24-3.81-0.49c-1.36-0.82-2.32-2.05-3.03-3.5
			c-0.31-0.63-0.18-0.96,0.49-1.09c1.07-0.21,2.14-0.13,3.2,0.03c0.39,0.05,0.63,0.33,0.66,0.74c0.05,0.68,0.08,1.37,0.12,2.05
			c0.03,0.51,0.09,1,0.27,1.47c0.12,0.3,0.34,0.38,0.62,0.21c0.16-0.1,0.3-0.22,0.43-0.36c0.64-0.67,1.11-1.46,1.59-2.25
			c0.32-0.54,0.6-0.64,1.16-0.39c0.34,0.15,0.66,0.34,0.98,0.52c0.18,0.1,0.37,0.14,0.55,0.02c0.17-0.13,0.14-0.31,0.12-0.5
			c-0.09-0.88-0.36-1.7-0.7-2.5c-0.28-0.64-0.58-1.29-1.15-1.73c-0.89-0.68-1.9-1.08-2.97-1.29c-0.92-0.17-1.85-0.34-2.78-0.46
			c-0.87-0.12-1.75-0.27-2.63-0.23C83.97,8,82.96,7.78,81.92,7.8c-0.73,0.02-1.47-0.09-2.2-0.16c-1.28-0.1-2.54-0.29-3.76-0.82
			c-1.19-0.52-2.21-1.3-3.25-2.06c-0.3-0.22-0.42-0.18-0.51,0.19c-0.02,0.1-0.04,0.21-0.04,0.32c0.03,1.28,0.42,2.47,0.88,3.63
			c0.46,1.17,1.11,2.22,1.76,3.28c0.28,0.46,0.19,0.9-0.25,1.16c-0.77,0.47-1.42,1.11-2.02,1.78c-0.89,0.96-1.53,2.15-2.22,3.28
			c-0.53,0.85-1.05,1.69-1.44,2.62c-0.62,1.52-1.34,2.99-2.19,4.39c-0.24,0.4-0.45,0.84-0.81,1.12c-0.86,0.66-1.73,1.3-2.86,1.37
			c-0.58,0.03-0.81,0.61-0.5,1.13c0.09,0.13,0.2,0.25,0.29,0.38c0.3,0.4,0.7,0.69,1.09,0.99c1.16,0.88,2.38,1.52,3.9,1.19
			c1.1-0.23,1.95-0.73,2.44-1.82c0.08-0.18,0.18-0.42,0.42-0.34c0.23,0.09,0.14,0.34,0.1,0.52c-0.12,0.58-0.28,1.17-0.37,1.76
			c-0.19,1.29,0,2.53,0.39,3.77c0.56,1.8,1.7,2.86,3.5,3.15c1.71,0.27,3.56-1.08,4-2.76c0.06-0.24,0.15-0.47,0.25-0.69
			c0.23-0.53,0.33-1.11,0.36-1.69c0.03-0.53,0.05-1.07,0.22-1.58c0.05-0.15,0.06-0.36,0.25-0.36c0.19,0,0.22,0.2,0.27,0.35
			c0.19,0.65,0.29,1.34,0.58,1.96c0.26,0.57,0.49,1.15,0.9,1.64c0.71,0.83,1.56,1.45,2.45,2.02c0.83,0.54,1.7,1.01,2.72,0.99
			c0.25-0.01,0.51-0.02,0.61-0.32c0.11-0.32,0.16-0.63-0.12-0.93c-1.09-1.15-1.73-2.58-2.15-4.1c-0.46-1.62-0.45-3.33-0.51-5.01
			c-0.02-0.56-0.01-1.14,0.02-1.71c0.03-0.65,0.06-1.3,0.15-1.95c0.06-0.45,0.44-0.72,0.8-0.59c0.59,0.21,1.19,0.43,1.73,0.73
			c1.25,0.69,2.53,1.24,3.91,1.58C90.86,26.23,91.02,26.28,91.18,26.3z M116.02,77.84c0.08-0.51,0.07-1.03-0.06-1.53
			c-0.27-1.06-1.08-1.64-1.92-2.15c-0.83-0.5-1.77-0.76-2.66-1.12c-0.69-0.28-1.41-0.35-2.13-0.34c-0.26,0.01-0.56,0.07-0.71-0.18
			c-0.16-0.27-0.06-0.59,0.1-0.83c0.3-0.46,0.69-0.86,1.18-1.1c0.76-0.37,1.58-0.34,2.39-0.27c0.97,0.09,1.88,0.48,2.76,0.92
			c1.06,0.54,1.76,1.41,1.93,2.67c0.03,0.23,0.04,0.54,0.31,0.58c0.29,0.04,0.32-0.3,0.44-0.5c0.04-0.06,0.03-0.15,0.06-0.22
			c0.11-0.36,0.23-0.74,0.35-1.1c0.36-1.07,0.44-2.18,0.15-3.26c-0.35-1.34-1.25-2.27-2.38-2.9c-1.25-0.7-2.61-0.99-4.01-0.72
			c-2.02,0.4-3.18,1.92-4.09,3.68c-0.39,0.77-0.78,1.56-1.2,2.32c-0.34,0.63-0.88,0.94-1.56,1.06c-0.57,0.09-1.14,0.1-1.71,0.08
			c-0.27,0-0.54,0.07-0.78-0.08c-0.25-0.16-0.51-0.21-0.78-0.27c-0.68-0.16-1.36-0.31-2.03-0.51c-0.53-0.16-1.06-0.35-1.56-0.58
			c-0.49-0.22-0.89-0.2-1.1,0.14c-0.24,0.39-0.12,0.79,0.34,1.14c0.09,0.07,0.19,0.13,0.29,0.17c0.82,0.36,1.66,0.66,2.43,1.15
			c1.09,0.69,2.15,1.4,2.98,2.45c0.63,0.79,0.83,1.65,0.49,2.64c-0.1,0.3-0.27,0.57-0.39,0.87c-0.47,1.11-0.83,2.26-1.17,3.42
			c-0.22,0.75-0.4,1.5-0.29,2.33c0.29,2.23,1.67,3.43,3.49,4.28c0.25,0.11,0.53,0.02,0.79,0.1c1.39,0.47,2.49,0.09,3.33-1.09
			c0.95-1.33,1.51-2.82,1.79-4.45c0.04-0.23,0.23-0.56-0.02-0.71c-0.25-0.14-0.49,0.14-0.67,0.35c-0.28,0.33-0.62,0.55-1.01,0.69
			c-1.09,0.4-2.17,0.3-3.26-0.04c-1.03-0.32-2.01-1.53-2.04-2.59c-0.06-2.57,1.91-4.1,4.16-3.81c1.11,0.14,2.09,0.72,3.07,1.25
			c0.84,0.46,1.49,1.1,1.72,2.1c0.1,0.45,0.07,0.9,0.06,1.36c0,0.21-0.04,0.5,0.22,0.57c0.25,0.08,0.43-0.13,0.55-0.33
			c0.19-0.29,0.34-0.58,0.5-0.89c0.66-1.22,1.33-2.46,1.53-3.88C115.91,78.45,115.98,78.15,116.02,77.84z M108.2,28.08
			c-1.45,0.59-2.87,1.23-4.01,2.39c-0.24,0.24-0.49,0.48-0.58,0.82c-0.21,0.78-0.43,1.57-0.17,2.4c0.17,0.56,0.29,1.14,0.44,1.7
			c0.22,0.9,0.43,1.83,0.42,2.73c-0.01,1.69-0.64,3.16-1.93,4.25c-0.74,0.63-1.52,1.19-2.33,1.68c-0.85,0.51-1.69,1.06-2.6,1.46
			c-0.48,0.21-0.66,0.65-0.49,1.03c0.14,0.33,0.61,0.42,1.06,0.22c1.77-0.78,3.55-1.56,5.5-1.75c0.99-0.1,1.87,0.15,2.59,0.9
			c0.62,0.64,0.95,1.47,1.3,2.28c0.3,0.7,0.61,1.38,1.09,1.96c0.63,0.77,1.39,1.27,2.39,1.24c1.06-0.03,2.06-0.31,3.02-0.77
			c0.55-0.26,1.09-0.58,1.52-1.07c0.77-0.89,0.77-1.96,0.54-3.02c-0.2-0.95-0.55-1.89-0.84-2.83c-0.05-0.15-0.07-0.35-0.27-0.33
			c-0.18,0.02-0.22,0.21-0.27,0.36c-0.14,0.52-0.34,1-0.67,1.43c-0.47,0.62-1.06,1.03-1.71,1.33c-1.27,0.6-2.57,0.88-3.87,0.01
			c-0.72-0.48-1.2-1.3-0.99-2.03c0.38-1.35,1.24-2.31,2.46-2.91c1-0.48,1.98-1,3.11-1.15c1.14-0.14,2.23-0.24,3.12,0.77
			c0.26,0.29,0.47,0.62,0.74,0.89c0.12,0.13,0.28,0.2,0.45,0.1c0.16-0.09,0.17-0.26,0.13-0.42c-0.08-0.34-0.17-0.67-0.27-0.99
			c-0.26-0.86-0.48-1.72-0.85-2.55c-0.25-0.57-0.4-1.2-0.65-1.77c-0.18-0.42-0.49-0.72-0.9-0.92c-1.09-0.53-2.17-0.34-3.24,0
			c-1.41,0.46-2.8,0.97-4.09,1.75c-0.36,0.21-0.72,0.4-1.09,0.59c-0.27,0.14-0.47,0.06-0.62-0.2c-0.23-0.39-0.18-0.83-0.09-1.23
			c0.35-1.67,1.36-2.77,2.77-3.53c0.64-0.34,1.34-0.46,2.02-0.63c0.58-0.13,1.15-0.07,1.71,0.16c0.44,0.2,0.76,0.53,1.09,0.87
			c0.17,0.17,0.39,0.47,0.65,0.25c0.22-0.18,0.17-0.5,0.04-0.77c-0.01-0.02-0.01-0.04-0.02-0.06c-0.48-0.95-0.96-1.9-1.45-2.83
			c-0.52-1-1.21-1.77-2.4-1.84C109.38,27.81,108.77,27.85,108.2,28.08z M14.7,25.69c0.61,0.09,1.2-0.03,1.81-0.04
			c0.94-0.02,1.86-0.24,2.79-0.36c1.03-0.14,2.03-0.47,3.04-0.78c0.74-0.22,1.46-0.57,2.23-0.69c0.68-0.11,1.22-0.42,1.43-1.18
			c0.14-0.5,0.11-1.01,0.01-1.5c-0.2-0.96-0.43-1.9-0.53-2.88c-0.07-0.71-0.14-1.43-0.29-2.13c-0.26-1.24-0.33-2.51-0.39-3.76
			c-0.04-0.9-0.56-1.25-1.32-0.83c-0.18,0.1-0.38,0.19-0.53,0.32c-1.1,0.94-2.22,1.87-3.29,2.85c-1.29,1.18-2.45,2.5-3.64,3.78
			c-1.17,1.26-2.3,2.56-3.3,4c-0.34,0.49-0.8,0.91-1.04,1.47c-0.35,0.82-0.4,1.38,0.62,1.49c0.06,0,0.12,0.03,0.29,0.06
			C13.2,25.75,13.96,25.56,14.7,25.69z M31.21,34.64c0.62,0.13,1.28,0.09,1.92,0.02c1.06-0.1,2.13-0.17,3.19-0.41
			c0.54-0.12,1.08-0.24,1.6-0.42c0.83-0.29,1.63-0.63,2.43-1.01c1.38-0.62,2.71-1.35,3.92-2.3c0.56-0.44,1.06-1.35,0.53-2.34
			c-0.28-0.5-0.49-1.04-0.7-1.58c-0.56-1.43-1.1-2.87-1.66-4.3c-0.19-0.48-0.55-0.67-1.04-0.6c-0.88,0.13-1.62,0.58-2.32,1.1
			c-0.27,0.2-0.52,0.41-0.8,0.6c-1.19,0.86-2.35,1.75-3.44,2.75c-0.93,0.86-1.75,1.83-2.5,2.87c-0.9,1.24-1.51,2.6-1.94,4.09
			C30.12,34.17,30.45,34.48,31.21,34.64z M97.49,70.07c1.14,0.13,2.22-0.03,3.22-0.74c1.24-0.88,2.21-2,3.03-3.29
			c0.21-0.34,0.42-0.67,0.51-1.09c0.09-0.43-0.07-0.65-0.43-0.74c-0.97-0.24-1.92-0.52-2.88-0.79c-1.26-0.35-2.53-0.59-3.81-0.85
			c-0.44-0.09-0.8-0.42-1.25-0.39c-0.65,0.04-1.25-0.19-1.88-0.28c-1.25-0.18-2.43,0.09-3.48,0.82c-0.96,0.66-1.68,1.57-2.31,2.56
			c-0.44,0.7-0.3,1.4,0.42,1.75c1.01,0.51,2.01,1.02,3.07,1.44c1.38,0.54,2.82,0.86,4.18,1.44C96.4,70.09,96.96,70.01,97.49,70.07z
			 M98.29,48.13c-0.83,0.16-1.61,0.45-2.41,0.73c-1.61,0.55-3.24,1.06-4.87,1.58c-0.46,0.15-0.75,0.49-0.67,0.87
			c0.06,0.26,0.12,0.52,0.24,0.76c0.44,0.86,1.01,1.6,1.61,2.34c1.11,1.37,2.57,2.09,4.16,2.49c1.05,0.26,2.13,0.11,3.18-0.2
			c0.8-0.24,1.54-0.66,2.29-1.02c0.89-0.44,1.81-0.82,2.61-1.43c0.28-0.22,0.52-0.46,0.36-0.86c-0.22-0.54-0.42-1.07-0.76-1.54
			c-0.6-0.83-1.19-1.66-1.97-2.33c-0.71-0.62-1.5-1.07-2.38-1.4C99.23,48.1,98.76,48.04,98.29,48.13z M96.67,75.53
			c-0.26-1.13-0.97-2-1.69-2.84c-0.62-0.71-1.42-1.2-2.14-1.77c-0.81-0.65-1.72-1.13-2.64-1.55c-0.74-0.33-1.46-0.7-2.17-1.1
			c-0.53-0.29-1.05-0.23-1.24,0.21c-0.16,0.37-0.32,0.74-0.42,1.14c-0.31,1.22-0.26,2.45-0.1,3.67c0.06,0.48,0.13,0.97,0.36,1.4
			c0.61,1.1,1.45,1.98,2.4,2.73c1.12,0.88,2.36,1.56,3.6,2.24c0.76,0.42,1.57,0.72,2.3,1.21c0.39,0.26,0.69,0.15,0.94-0.27
			c0.42-0.72,0.87-1.43,1-2.25C97.09,77.35,96.88,76.43,96.67,75.53z M98.91,40.04c0.01-0.83,0.05-1.67,0.04-2.51
			c0-0.36-0.06-0.7-0.13-1.04c-0.05-0.29-0.29-0.35-0.51-0.29c-0.68,0.21-1.36,0.4-2.02,0.66c-0.83,0.33-1.58,0.84-2.37,1.28
			c-1.04,0.6-2.06,1.24-2.94,2.09c-0.81,0.78-1.52,1.64-1.91,2.73c-0.25,0.7-0.34,1.45-0.47,2.19c-0.19,1.04-0.12,2.05,0.28,3
			c0.42,0.98,0.85,1.31,1.86,0.64c0.79-0.52,1.6-1.05,2.41-1.54c1.17-0.73,2.31-1.51,3.34-2.45c1.14-1.03,1.93-2.3,2.26-3.76
			C98.82,40.66,98.9,40.36,98.91,40.04z M44.96,40.93c0.54-0.08,1.02-0.3,1.53-0.48c1.36-0.46,2.55-1.2,3.45-2.4
			c0.29-0.38,0.39-0.82,0.16-1.23c-0.3-0.54-0.56-1.15-1.01-1.56c-0.42-0.36-0.7-0.8-0.99-1.27c-0.57-0.87-1.15-1.74-1.69-2.64
			c-0.47-0.77-1.01-0.9-1.57-0.39c-0.53,0.47-1.08,0.93-1.47,1.54c-0.19,0.31-0.44,0.56-0.66,0.86c-0.81,1.1-1.4,2.32-1.77,3.65
			c-0.2,0.72-0.3,1.47-0.44,2.21c-0.14,0.75,0.22,1.32,0.92,1.49c0.28,0.06,0.56,0.12,0.98,0.21
			C43.16,41.22,44.05,41.06,44.96,40.93z"/>
	</g>
</g>
</svg>
